<svg xmlns="http://www.w3.org/2000/svg" width="900" height="900" viewBox="0 0 900 900">
  <defs>
    <linearGradient id="bg" x1="0" y1="0" x2="1" y2="1">
      <stop offset="0" stop-color="#f6f8ff" />
      <stop offset="1" stop-color="#ffffff" />
    </linearGradient>
    <linearGradient id="p" x1="0" y1="0" x2="1" y2="1">
      <stop offset="0" stop-color="#365CFF" />
      <stop offset="1" stop-color="#00D4FF" />
    </linearGradient>
    <filter id="s" x="-20%" y="-20%" width="140%" height="140%">
      <feDropShadow dx="0" dy="28" stdDeviation="28" flood-color="#0b1020" flood-opacity="0.12" />
    </filter>
  </defs>
  <rect width="900" height="900" rx="56" fill="url(#bg)" />
  <circle cx="650" cy="240" r="160" fill="rgba(54,92,255,0.12)" />
  <circle cx="220" cy="650" r="210" fill="rgba(0,212,255,0.10)" />

  <g filter="url(#s)">
    <path
      d="M540 120c70 0 130 60 130 130v140c0 70-60 130-130 130h-40c-38 0-70-32-70-70V210c0-50 40-90 90-90h20Z"
      fill="#fff"
      stroke="rgba(11,16,32,0.10)"
      stroke-width="2"
    />
    <rect x="470" y="290" width="220" height="110" rx="52" fill="rgba(11,16,32,0.08)" />
    <rect x="505" y="318" width="150" height="54" rx="27" fill="#0b1020" />
    <circle cx="575" cy="345" r="12" fill="url(#p)" />
  </g>

  <text x="60" y="90" font-family="Inter, Arial" font-weight="800" font-size="34" fill="#0b1020">
    Replace with your hero image
  </text>
  <text x="60" y="130" font-family="Inter, Arial" font-weight="600" font-size="18" fill="#5a657c">
    Size: 900×900 (recommended)
  </text>
</svg>

