<?xml version="1.0" encoding="UTF-8"?>
<svg id="Layer_1" data-name="Layer 1" xmlns="http://www.w3.org/2000/svg" viewBox="0 0 64 64">
  <path d="m63.92,63.7H-.08V-.3H63.92V63.7Zm-41.78-10.88h-.51c-1.95,0-3.91,0-5.86,0-.35,0-.71,0-1.06.02-.44.03-.68.28-.69.72,0,.45.25.69.67.76.16.03.33.01.5.01,2.77,0,5.53-.01,8.3.02.32,0,.69.14.94.34,6.35,4.91,13.42,6.4,21.13,4.15,10.9-3.18,17.86-14.07,16.11-25.3-1.36-8.76-6.34-14.8-14.51-18.19-1.44-.6-3-.92-4.52-1.37v-2.63c2.02-.18,2.66-.89,2.67-2.88,0-.81.01-1.62,0-2.43-.03-1.45-.96-2.36-2.41-2.36-2.64,0-5.28,0-7.92,0-1.52,0-2.43.92-2.45,2.45,0,.79,0,1.58,0,2.37,0,1.95.64,2.66,2.58,2.84.04,0,.07.04.1.06v2.71c-3.58.6-6.8,1.96-9.71,4.04-.67-.67-1.3-1.3-1.95-1.95.12-.14.24-.27.36-.41.77-.91.81-2.08.01-2.95-.78-.86-1.61-1.69-2.47-2.47-.87-.79-2.11-.78-2.95.04-2.02,1.98-4.02,3.98-6,6-.83.85-.82,2.13-.01,3,.78.84,1.59,1.65,2.43,2.42.83.77,2.03.76,2.91.04.17-.14.33-.29.39-.35.69.65,1.35,1.27,1.9,1.79-.87,1.7-1.74,3.35-2.55,5.02-.19.38-.35.56-.8.56-1.73-.03-3.45-.01-5.18-.01-.49,0-.82.21-.83.72,0,.54.32.78.84.78.33,0,.67,0,1,0,1.39,0,2.77,0,4.24,0-.97,3.46-1.18,6.89-.57,10.42-.3,0-.53,0-.75,0-2.58,0-5.16,0-7.74,0-.25,0-.54-.04-.73.07-.23.14-.5.43-.51.67,0,.24.24.54.45.71.15.12.44.09.66.09,2.31,0,4.62,0,6.93,0,.66,0,1.32,0,1.8,0,.83,1.93,1.48,3.83,2.44,5.56.95,1.73,2.21,3.28,3.34,4.93Zm-13.97-27.05c1.81,0,3.61,0,5.42,0,.66,0,1.01-.27,1.01-.74,0-.47-.38-.76-1.01-.76-3.59,0-7.18,0-10.78,0-.7,0-1.05.27-1.03.79.02.49.33.71,1.03.71,1.79,0,3.57,0,5.36,0Zm-1.46,9.05c-1.24,0-2.49,0-3.73,0-.51,0-.91.16-.94.75-.02.49.33.77.99.77,2.47,0,4.94,0,7.4,0,.66,0,1.07-.32,1.05-.8-.02-.46-.38-.73-1.04-.73-1.24,0-2.49,0-3.73,0Zm3.89,13.52c.95,0,1.91,0,2.86,0,.62,0,.94-.27.93-.76-.02-.6-.41-.76-.93-.76-1.91,0-3.82,0-5.72,0-.51,0-.92.13-.96.73-.03.51.31.79.96.79.95,0,1.91,0,2.86,0Z" style="fill: #fff;"/>
  <path d="m22.15,52.82c-1.13-1.64-2.38-3.2-3.34-4.93-.95-1.73-1.6-3.62-2.44-5.56-.48,0-1.14,0-1.8,0-2.31,0-4.62,0-6.93,0-.22,0-.51.03-.66-.09-.22-.17-.46-.47-.45-.71,0-.23.28-.52.51-.67.19-.12.48-.07.73-.07,2.58,0,5.16,0,7.74,0,.22,0,.45,0,.75,0-.61-3.53-.4-6.96.57-10.42-1.47,0-2.85,0-4.24,0-.33,0-.67,0-1,0-.52,0-.85-.24-.84-.78,0-.51.34-.72.83-.72,1.73,0,3.45-.02,5.18.01.45,0,.61-.17.8-.56.81-1.68,1.68-3.33,2.55-5.02-.55-.52-1.21-1.14-1.9-1.79-.06.05-.22.21-.39.35-.88.72-2.08.73-2.91-.04-.84-.78-1.65-1.59-2.43-2.42-.81-.87-.82-2.15.01-3,1.98-2.02,3.98-4.02,6-6,.83-.81,2.07-.83,2.95-.04.86.78,1.69,1.61,2.47,2.47.8.88.76,2.04-.01,2.95-.12.14-.24.28-.36.41.65.65,1.28,1.28,1.95,1.95,2.91-2.08,6.13-3.44,9.71-4.04v-2.71s-.06-.06-.1-.06c-1.93-.18-2.58-.89-2.58-2.84,0-.79,0-1.58,0-2.37.02-1.53.93-2.44,2.45-2.45,2.64,0,5.28,0,7.92,0,1.45,0,2.38.91,2.41,2.36.02.81,0,1.62,0,2.43,0,1.98-.64,2.69-2.67,2.88v2.63c1.52.45,3.07.78,4.52,1.37,8.17,3.38,13.15,9.42,14.51,18.19,1.75,11.22-5.22,22.11-16.11,25.3-7.72,2.25-14.78.76-21.13-4.15-.25-.2-.62-.33-.94-.34-2.77-.03-5.53-.01-8.3-.02-.17,0-.34.02-.5-.01-.42-.07-.68-.31-.67-.76,0-.44.26-.69.69-.72.35-.02.71-.02,1.06-.02,1.95,0,3.91,0,5.86,0h.51Zm-4.7-16.05c-.11,11.74,9.47,21.46,21.37,21.54,11.81.08,21.48-9.38,21.61-21.38.13-11.8-9.5-21.49-21.45-21.61-11.76-.12-21.42,9.51-21.53,21.45Zm5.58-22.47c-.16-.24-.26-.47-.42-.64-.65-.67-1.31-1.33-1.98-1.99-.47-.46-.81-.46-1.28,0-1.86,1.85-3.71,3.7-5.56,5.55-.5.51-.5.82-.01,1.33.64.65,1.29,1.3,1.94,1.94.5.49.82.5,1.33,0,1.86-1.85,3.71-3.7,5.55-5.56.17-.17.27-.4.43-.64Zm15.83-4.51c1.33,0,2.66,0,3.99,0,.68,0,.9-.22.91-.89.01-.93.01-1.87,0-2.81,0-.67-.24-.92-.89-.92-2.64,0-5.28,0-7.92,0-.62,0-.87.26-.87.87-.01.93,0,1.87,0,2.81,0,.75.21.94.98.94,1.27,0,2.53,0,3.8,0Zm-2.04,4.05h4.25v-2.49h-4.25v2.49Zm-14.34,3.51c-1.02,1.02-2.01,2.01-3.01,3.01.56.55,1.14,1.14,1.62,1.61,1-1,2.01-2.01,3.01-3-.47-.47-1.06-1.06-1.61-1.62Z"/>
  <path d="m8.17,25.77c-1.79,0-3.57,0-5.36,0-.7,0-1.01-.22-1.03-.71-.02-.52.33-.79,1.03-.79,3.59,0,7.18,0,10.78,0,.63,0,1.01.29,1.01.76,0,.47-.36.74-1.01.74-1.81,0-3.61,0-5.42,0Z"/>
  <path d="m6.71,34.82c1.24,0,2.49,0,3.73,0,.66,0,1.02.27,1.04.73.02.48-.39.8-1.05.8-2.47,0-4.94,0-7.4,0-.65,0-1.01-.28-.99-.77.02-.59.42-.75.94-.75,1.24,0,2.49,0,3.73,0Z"/>
  <path d="m10.6,48.34c-.95,0-1.91,0-2.86,0-.65,0-.99-.28-.96-.79.04-.6.45-.73.96-.73,1.91,0,3.82,0,5.72,0,.51,0,.91.16.93.76.01.49-.31.76-.93.76-.95,0-1.91,0-2.86,0Z"/>
  <path d="m17.44,36.77c.11-11.94,9.78-21.56,21.53-21.45,11.95.12,21.58,9.81,21.45,21.61-.14,12-9.8,21.45-21.61,21.38-11.9-.08-21.48-9.8-21.37-21.54Zm39.24.09c0-9.85-7.95-17.82-17.77-17.82-9.77,0-17.77,8-17.78,17.77,0,9.78,7.98,17.78,17.76,17.78,9.82,0,17.78-7.93,17.79-17.73Z" style="fill: #fff;"/>
  <path d="m23.02,14.3c-.16.24-.27.47-.43.64-1.84,1.86-3.7,3.71-5.55,5.56-.5.5-.82.49-1.33,0-.65-.64-1.3-1.29-1.94-1.94-.49-.5-.49-.82.01-1.33,1.85-1.86,3.7-3.71,5.56-5.55.47-.47.81-.46,1.28,0,.67.65,1.33,1.31,1.98,1.99.16.17.27.4.42.64Z" style="fill: #fff;"/>
  <path d="m38.85,9.79c-1.27,0-2.53,0-3.8,0-.77,0-.97-.19-.98-.94,0-.94-.01-1.87,0-2.81,0-.62.25-.87.87-.87,2.64,0,5.28,0,7.92,0,.65,0,.88.26.89.92.01.93.01,1.87,0,2.81,0,.67-.23.88-.91.89-1.33,0-2.66,0-3.99,0Z" style="fill: #fff;"/>
  <path d="m36.8,13.85v-2.49h4.25v2.49h-4.25Z" style="fill: #fff;"/>
  <path d="m22.47,17.36c.56.56,1.14,1.14,1.61,1.62-1,.99-2,2-3.01,3-.47-.47-1.06-1.06-1.62-1.61,1-1,1.99-1.99,3.01-3.01Z" style="fill: #fff;"/>
  <path d="m56.69,36.86c0,9.8-7.97,17.73-17.79,17.73-9.78,0-17.77-8-17.76-17.78,0-9.78,8.01-17.78,17.78-17.77,9.82,0,17.77,7.98,17.77,17.82Zm-33.98-.81c.44,0,.77,0,1.1,0,.67,0,1.33-.01,2,.01.46.02.76.29.76.75,0,.45-.3.72-.75.77-.2.03-.42,0-.62.01-.8,0-1.61,0-2.49,0,.22,3.93,1.64,7.26,4.24,10.19.69-.71,1.34-1.38,2-2.05.45-.46.91-.51,1.24-.17.34.34.28.79-.18,1.25-.66.65-1.33,1.3-2.04,1.99,2.96,2.62,6.29,4.03,10.21,4.24,0-.32,0-.56,0-.81,0-.77,0-1.54.02-2.31.01-.43.27-.77.7-.7.29.05.56.33.77.57.1.11.04.36.04.55,0,.89,0,1.78,0,2.71,3.92-.24,7.26-1.63,10.18-4.24-.7-.69-1.35-1.32-2-1.97-.5-.49-.56-.94-.2-1.29.35-.34.79-.27,1.29.24.63.65,1.25,1.31,1.92,2.01,2.64-2.98,4.04-6.31,4.26-10.22-.27,0-.47,0-.67,0-.75,0-1.5,0-2.25,0-.61-.01-.94-.29-.92-.78.02-.6.43-.75.93-.76.46,0,.91,0,1.37,0,.51,0,1.02,0,1.55,0-.25-3.94-1.64-7.27-4.26-10.2-.69.71-1.31,1.37-1.95,2.02-.49.49-.95.55-1.29.19-.33-.35-.27-.78.2-1.24.66-.65,1.34-1.29,2.05-1.97-2.97-2.61-6.29-4.04-10.21-4.24,0,.33,0,.58,0,.82,0,.75.01,1.5,0,2.25-.01.45-.28.76-.74.77-.46.02-.73-.25-.77-.72-.02-.23-.01-.46-.01-.69,0-.79,0-1.57,0-2.44-3.94.2-7.27,1.63-10.23,4.25.62.59,1.21,1.15,1.79,1.7.14.13.26.26.4.4.34.35.4.75.06,1.11-.34.36-.76.33-1.1-.02-.71-.71-1.4-1.45-2.13-2.2-2.61,2.96-4.03,6.28-4.25,10.22Z"/>
  <path d="m22.7,36.05c.22-3.93,1.63-7.25,4.25-10.22.73.75,1.42,1.48,2.13,2.2.35.35.76.38,1.1.02.34-.35.28-.76-.06-1.11-.13-.13-.26-.27-.4-.4-.58-.56-1.17-1.11-1.79-1.7,2.97-2.62,6.3-4.04,10.23-4.25,0,.86,0,1.65,0,2.44,0,.23,0,.46.01.69.03.47.31.74.77.72.46-.02.72-.32.74-.77.02-.75,0-1.5,0-2.25,0-.25,0-.49,0-.82,3.92.2,7.24,1.63,10.21,4.24-.71.68-1.39,1.32-2.05,1.97-.47.47-.53.9-.2,1.24.34.36.8.3,1.29-.19.64-.65,1.27-1.31,1.95-2.02,2.62,2.93,4,6.26,4.26,10.2-.53,0-1.04,0-1.55,0-.46,0-.92,0-1.37,0-.51,0-.92.16-.93.76-.02.49.31.76.92.78.75.01,1.5,0,2.25,0,.2,0,.41,0,.67,0-.22,3.91-1.63,7.24-4.26,10.22-.67-.7-1.29-1.36-1.92-2.01-.5-.51-.93-.58-1.29-.24-.36.35-.3.79.2,1.29.65.64,1.3,1.28,2,1.97-2.92,2.61-6.26,4-10.18,4.24,0-.93,0-1.82,0-2.71,0-.19.05-.44-.04-.55-.21-.24-.49-.52-.77-.57-.43-.07-.68.27-.7.7-.02.77-.01,1.54-.02,2.31,0,.25,0,.49,0,.81-3.92-.21-7.25-1.62-10.21-4.24.71-.69,1.38-1.33,2.04-1.99.46-.46.52-.91.18-1.25-.33-.34-.79-.29-1.24.17-.66.66-1.31,1.34-2,2.05-2.6-2.93-4.02-6.26-4.24-10.19.88,0,1.68,0,2.49,0,.21,0,.42.02.62-.01.45-.06.75-.32.75-.77,0-.45-.3-.73-.76-.75-.66-.03-1.33-.01-2-.01-.33,0-.66,0-1.1,0Zm13.66,1.9c-.33.83-.63,1.57-.94,2.32-.65,1.59-1.3,3.19-1.96,4.78-.18.43-.13.78.26,1.03.41.27.75.11,1.04-.22.07-.08.14-.16.21-.23,3.05-3.57,6.1-7.15,9.15-10.72.27-.32.59-.62.4-1.1-.21-.51-.67-.49-1.11-.49-.72,0-1.44,0-2.25,0,.16-.28.26-.46.37-.63.82-1.3,1.64-2.6,2.45-3.91.45-.73.14-1.27-.71-1.29-1.5-.03-2.99-.05-4.49-.08-.52-.01-.85.2-1.08.67-1.4,2.85-2.83,5.68-4.24,8.53-.41.82-.1,1.32.83,1.34.66.01,1.32,0,2.06,0Z" style="fill: #fff;"/>
  <path d="m36.36,37.95c-.74,0-1.4.01-2.06,0-.93-.02-1.24-.51-.83-1.34,1.41-2.84,2.84-5.68,4.24-8.53.23-.47.56-.68,1.08-.67,1.5.04,2.99.05,4.49.08.85.02,1.16.56.71,1.29-.8,1.31-1.63,2.6-2.45,3.91-.11.17-.21.35-.37.63.81,0,1.53,0,2.25,0,.44,0,.9-.02,1.11.49.19.47-.12.78-.4,1.1-3.05,3.57-6.1,7.15-9.15,10.72-.07.08-.14.16-.21.23-.29.33-.64.49-1.04.22-.39-.25-.44-.61-.26-1.03.66-1.59,1.31-3.18,1.96-4.78.3-.74.6-1.49.94-2.32Zm5.71-8.98c-.96,0-1.77.03-2.57-.01-.43-.02-.62.15-.8.51-1.04,2.12-2.1,4.23-3.15,6.35-.08.16-.14.33-.25.57.72,0,1.36-.01,2,0,.82.02,1.13.48.83,1.24-.33.85-.69,1.69-1.03,2.53-.1.25-.18.5-.27.75.04.02.08.04.12.06,1.71-2.01,3.42-4.01,5.22-6.12-.76,0-1.36,0-1.96,0-.44,0-.97.05-1.1-.46-.08-.32.06-.76.24-1.06.85-1.42,1.75-2.81,2.72-4.35Z"/>
  <path d="m42.07,28.98c-.97,1.54-1.87,2.93-2.72,4.35-.18.3-.32.75-.24,1.06.13.51.66.47,1.1.46.6,0,1.2,0,1.96,0-1.8,2.11-3.51,4.12-5.22,6.12-.04-.02-.08-.04-.12-.06.09-.25.17-.51.27-.75.34-.84.7-1.68,1.03-2.53.29-.76-.02-1.22-.83-1.24-.64-.02-1.28,0-2,0,.11-.25.17-.41.25-.57,1.05-2.11,2.11-4.22,3.15-6.35.18-.36.37-.53.8-.51.8.04,1.61.01,2.57.01Z" style="fill: #fff;"/>
</svg>