<?xml version="1.0" encoding="UTF-8"?>
<svg id="Layer_1" data-name="Layer 1" xmlns="http://www.w3.org/2000/svg" viewBox="0 0 64 64">
  <path d="m19.39,64H.23V.62h63.38v63.38h-19.01c.1-.05.2-.12.31-.16,1.86-.64,2.9-2.07,2.9-4.05,0-16.89,0-33.78,0-50.67,0-2.42-1.73-4.16-4.16-4.18-1.17-.01-2.35,0-3.52,0-.24,0-.47,0-.73,0,0-1.01,0-1.91,0-2.82,0-1.01-.38-1.38-1.38-1.38-4.02,0-8.03,0-12.05,0-1,0-1.37.38-1.38,1.38,0,.92,0,1.84,0,2.82-1.34,0-2.61.05-3.88-.01-2.69-.14-4.57,1.87-4.56,4.57.06,16.66.03,33.32.03,49.99,0,.21,0,.41,0,.62.04,1.15.47,2.15,1.37,2.86.55.43,1.22.7,1.84,1.05Z" style="fill: #fff;"/>
  <path d="m19.39,64c-.62-.34-1.29-.61-1.84-1.05-.9-.71-1.32-1.71-1.37-2.86,0-.21,0-.41,0-.62,0-16.66.03-33.32-.03-49.99,0-2.7,1.88-4.7,4.56-4.57,1.27.06,2.54.01,3.88.01,0-.98,0-1.9,0-2.82,0-1.01.38-1.38,1.38-1.38,4.02,0,8.03,0,12.05,0,1,0,1.37.38,1.38,1.38,0,.91,0,1.81,0,2.82.26,0,.49,0,.73,0,1.17,0,2.35,0,3.52,0,2.43.03,4.16,1.76,4.16,4.18,0,16.89,0,33.78,0,50.67,0,1.98-1.04,3.41-2.9,4.05-.11.04-.21.11-.31.16h-25.21Zm26.32-29.54c0-8.3,0-16.6,0-24.89,0-1.85-.68-2.52-2.55-2.52-3.4,0-6.79.03-10.19.03-4.1,0-8.2-.02-12.29-.03-1.69,0-2.4.72-2.4,2.41,0,16.68,0,33.36,0,50.03,0,1.68.72,2.39,2.42,2.39,7.52,0,15.03,0,22.55,0,1.76,0,2.46-.7,2.46-2.48,0-8.32,0-16.64,0-24.95ZM37.21,2.86h-10.44v2.05h10.44v-2.05Z"/>
  <path d="m45.71,34.46c0,8.32,0,16.64,0,24.95,0,1.78-.7,2.48-2.46,2.48-7.52,0-15.03,0-22.55,0-1.7,0-2.42-.71-2.42-2.39,0-16.68,0-33.36,0-50.03,0-1.7.71-2.42,2.4-2.41,4.1,0,8.2.03,12.29.03,3.4,0,6.79-.02,10.19-.03,1.87,0,2.55.67,2.55,2.52,0,8.3,0,16.6,0,24.89Zm-17.26,3.2c-.04.23-.05.37-.09.51-.45,1.71-.91,3.41-1.36,5.12-.78,2.92-1.55,5.83-2.32,8.75-.22.83.37,1.57,1.12,1.38.34-.09.69-.36.93-.64,4.7-5.68,9.38-11.36,14.06-17.05.39-.48.96-.92.6-1.67-.36-.76-1.07-.65-1.72-.65-1.35,0-2.71,0-4.13,0,.05-.25.08-.43.13-.6.61-2.3,1.22-4.6,1.84-6.9.61-2.3,1.22-4.6,1.83-6.9.15-.55-.03-.99-.52-1.25-.47-.25-.92-.15-1.29.24-.17.18-.32.37-.48.56-3.02,3.67-6.05,7.34-9.07,11.01-1.7,2.07-3.4,4.13-5.1,6.2-.51.62-.52,1.25.02,1.62.27.18.65.27.98.28,1.5.03,3,.01,4.58.01Z" style="fill: #fff;"/>
  <path d="m37.21,2.86v2.05h-10.44v-2.05h10.44Z" style="fill: #fff;"/>
  <path d="m28.45,37.66c-1.58,0-3.08.02-4.58-.01-.33,0-.71-.09-.98-.28-.54-.37-.53-1-.02-1.62,1.7-2.07,3.4-4.13,5.1-6.2,3.02-3.67,6.05-7.34,9.07-11.01.16-.19.31-.38.48-.56.37-.39.82-.49,1.29-.24.49.26.67.7.52,1.25-.61,2.3-1.22,4.6-1.83,6.9-.61,2.3-1.22,4.6-1.84,6.9-.05.17-.07.35-.13.6,1.43,0,2.78,0,4.13,0,.65,0,1.36-.11,1.72.65.36.75-.21,1.19-.6,1.67-4.68,5.69-9.37,11.38-14.06,17.05-.23.28-.58.56-.93.64-.75.19-1.33-.55-1.12-1.38.76-2.92,1.54-5.83,2.32-8.75.45-1.71.91-3.41,1.36-5.12.04-.14.05-.28.09-.51Zm9.72-2.11c-1.32,0-2.48,0-3.65,0-1.21,0-1.65-.57-1.34-1.73.54-2.02,1.08-4.04,1.62-6.06.39-1.45.77-2.91,1.15-4.36-.04-.02-.07-.03-.11-.05-3.31,4.02-6.62,8.03-10.02,12.16,1.35,0,2.52,0,3.69,0,1.18.01,1.6.58,1.3,1.71-.33,1.25-.67,2.5-1,3.75-.6,2.23-1.19,4.47-1.78,6.7.03.02.07.04.1.06,3.31-4.02,6.62-8.03,10.03-12.17Z"/>
  <path d="m38.16,35.55c-3.41,4.14-6.72,8.16-10.03,12.17-.03-.02-.07-.04-.1-.06.59-2.23,1.19-4.47,1.78-6.7.33-1.25.67-2.5,1-3.75.3-1.14-.12-1.7-1.3-1.71-1.17-.01-2.34,0-3.69,0,3.4-4.13,6.71-8.15,10.02-12.16.04.02.07.03.11.05-.38,1.45-.77,2.91-1.15,4.36-.54,2.02-1.08,4.04-1.62,6.06-.31,1.17.12,1.73,1.34,1.73,1.16,0,2.33,0,3.65,0Z" style="fill: #fff;"/>
</svg>