<?xml version="1.0" encoding="UTF-8"?>
<svg id="Layer_1" data-name="Layer 1" xmlns="http://www.w3.org/2000/svg" viewBox="0 0 64 64">
  <path d="m0,.62c21.33,0,42.67,0,64,0,0,21.13,0,42.26,0,63.38-21.33,0-42.67,0-64,0,0-21.13,0-42.26,0-63.38Zm48.87,55.08c-7.73,5.95-20.23,7.67-30.7,1.96C6.74,51.41,1.23,39.33,3.48,27.01,5.67,15.02,15.87,5.13,29.04,3.73c11.59-1.23,22.4,5.01,27.26,12.94-1.42-.31-2.8-.62-4.18-.92-.68-.15-1.14.08-1.26.64-.11.53.17.91.84,1.06,2.06.47,4.13.92,6.2,1.37.61.13.99-.12,1.14-.72.16-.64.29-1.28.43-1.92.33-1.48.66-2.97.97-4.45.11-.53-.14-.88-.63-1.04-.43-.14-.88.14-1.04.63-.09.27-.14.56-.2.84-.25,1.13-.5,2.25-.77,3.46-5.41-7.81-12.73-12.35-22.04-13.5-9.35-1.16-17.59,1.56-24.61,7.77C.94,18.91-2.3,35.08,5.64,48.17c4.15,6.84,10.18,11.4,17.86,13.53,9.62,2.67,18.61,1.02,26.77-4.71,1.39.83,2.58.87,3.43-.08.86-.95,1.88-1.47,3.09-1.73.62-.14,1.22-.36,1.82-.56.23-.08.47-.18.64-.35.84-.81,1.68-1.64,2.49-2.49.46-.47.45-.93-.02-1.4-.33-.33-.71-.62-1.11-.96.72-.69,1.3-1.27,1.91-1.81.54-.47.47-1.12-.17-1.42-.48-.22-.87-.12-1.22.25-.53.57-1.06,1.14-1.57,1.69-.65-.65-1.2-1.2-1.83-1.82.55-.52,1.11-1.04,1.64-1.57.5-.5.54-1.02.15-1.4-.38-.37-.92-.31-1.41.19-.53.54-1.03,1.1-1.64,1.75-.43-.48-.74-.87-1.09-1.21-.4-.4-.86-.41-1.26-.02-1.57,1.53-3.32,2.92-3.57,5.34-.04.4-.19.8-.35,1.18-.1.24-.28.48-.49.65-1.57,1.3-2.24,2.73-.86,4.48Zm-15.91-28.01c.02-.22.01-.35.04-.47.96-4.91,1.93-9.83,2.9-14.74.18-.91.36-1.81.53-2.72.09-.47-.05-.89-.52-1.06-.49-.18-.89,0-1.14.47-.09.16-.18.33-.26.49-3.56,6.61-7.13,13.22-10.69,19.83-1.07,1.99-2.13,3.99-3.19,5.98-.53.99-.17,1.59.95,1.59,2.92,0,5.85,0,8.77,0,.22,0,.44,0,.69,0-.01.21,0,.35-.03.49-.97,4.91-1.93,9.83-2.9,14.74-.18.91-.36,1.81-.52,2.72-.08.48.07.88.55,1.04.46.15.85-.01,1.09-.45.06-.11.12-.22.18-.32,2.61-4.82,5.23-9.63,7.82-14.45,2.07-3.85,4.12-7.72,6.18-11.58.51-.95.14-1.56-.94-1.56-2.59,0-5.19,0-7.78,0-.55,0-1.11,0-1.71,0Z" style="fill: #fff;"/>
  <path d="m48.87,55.7c-1.38-1.75-.71-3.17.86-4.48.2-.17.38-.41.49-.65.16-.38.31-.78.35-1.18.25-2.42,2.01-3.82,3.57-5.34.4-.39.86-.38,1.26.02.35.35.66.73,1.09,1.21.61-.65,1.11-1.21,1.64-1.75.49-.5,1.03-.55,1.41-.19.39.38.35.9-.15,1.4-.54.54-1.1,1.05-1.64,1.57.63.62,1.18,1.17,1.83,1.82.51-.55,1.04-1.12,1.57-1.69.35-.37.74-.48,1.22-.25.64.3.71.95.17,1.42-.62.54-1.19,1.12-1.91,1.81.4.35.78.63,1.11.96.47.47.48.93.02,1.4-.82.84-1.65,1.67-2.49,2.49-.17.16-.41.27-.64.35-.6.21-1.2.43-1.82.56-1.21.27-2.23.78-3.09,1.73-.85.95-2.05.91-3.43.08-8.16,5.73-17.15,7.38-26.77,4.71-7.67-2.13-13.71-6.69-17.86-13.53C-2.3,35.08.94,18.91,11.15,9.88,18.17,3.67,26.41.95,35.76,2.11c9.31,1.15,16.63,5.68,22.04,13.5.27-1.21.52-2.34.77-3.46.06-.28.11-.57.2-.84.16-.5.61-.77,1.04-.63.5.16.75.52.63,1.04-.31,1.49-.64,2.97-.97,4.45-.14.64-.27,1.29-.43,1.92-.15.6-.54.85-1.14.72-2.07-.45-4.13-.9-6.2-1.37-.67-.15-.96-.53-.84-1.06.12-.55.57-.79,1.26-.64,1.38.3,2.76.61,4.18.92-4.86-7.93-15.67-14.17-27.26-12.94C15.87,5.13,5.67,15.02,3.48,27.01c-2.25,12.32,3.26,24.4,14.7,30.65,10.47,5.71,22.96,3.99,30.7-1.96Zm3.65-6.62c-.04.1-.1.23-.13.37-.33,1.48-.83,2.86-2.11,3.83-.42.32-.37.79,0,1.18.26.27.52.52.78.79.83.84,1.06.87,1.84,0,.7-.78,1.5-1.3,2.53-1.5.47-.09.92-.28,1.35-.41-1.44-1.43-2.84-2.83-4.27-4.26Zm.99-1.85c1.7,1.72,3.4,3.44,5.07,5.12.43-.41.88-.84,1.25-1.2-1.72-1.73-3.42-3.45-5.12-5.17-.41.42-.83.86-1.2,1.24Z"/>
  <path d="m32.96,27.68c.6,0,1.16,0,1.71,0,2.59,0,5.19,0,7.78,0,1.08,0,1.45.61.94,1.56-2.06,3.86-4.11,7.73-6.18,11.58-2.6,4.82-5.21,9.63-7.82,14.45-.06.11-.12.22-.18.32-.25.44-.63.61-1.09.45-.48-.16-.64-.57-.55-1.04.16-.91.35-1.82.52-2.72.97-4.91,1.94-9.83,2.9-14.74.03-.14.02-.28.03-.49-.24,0-.46,0-.69,0-2.92,0-5.85,0-8.77,0-1.12,0-1.48-.6-.95-1.59,1.06-2,2.12-3.99,3.19-5.98,3.56-6.61,7.13-13.22,10.69-19.83.09-.16.18-.32.26-.49.25-.47.65-.64,1.14-.47.48.17.61.59.52,1.06-.17.91-.35,1.81-.53,2.72-.97,4.91-1.93,9.83-2.9,14.74-.02.12-.02.24-.04.47Zm-10.21,7.63c3.08,0,6.08,0,9.09,0,.98,0,1.3.4,1.12,1.35-.59,3.02-1.2,6.04-1.79,9.06-.23,1.16-.44,2.32-.67,3.48.03,0,.06.02.09.03,3.56-6.57,7.13-13.14,10.75-19.81-.36,0-.58,0-.8,0-2.8,0-5.6,0-8.4,0-.95,0-1.27-.39-1.09-1.32.63-3.22,1.27-6.45,1.9-9.67.19-.97.37-1.93.55-2.9l-.11-.03c-3.53,6.57-7.06,13.14-10.64,19.8Z"/>
  <path d="m52.53,49.08c1.43,1.42,2.83,2.82,4.27,4.26-.43.13-.89.32-1.35.41-1.03.21-1.83.73-2.53,1.5-.78.87-1.01.84-1.84,0-.26-.26-.53-.52-.78-.79-.38-.39-.43-.86,0-1.18,1.28-.98,1.78-2.35,2.11-3.83.03-.14.1-.27.13-.37Z" style="fill: #fff;"/>
  <path d="m53.52,47.23c.37-.38.8-.82,1.2-1.24,1.7,1.72,3.4,3.43,5.12,5.17-.37.36-.82.79-1.25,1.2-1.67-1.69-3.37-3.41-5.07-5.12Z" style="fill: #fff;"/>
  <path d="m22.75,35.31c3.58-6.65,7.11-13.23,10.64-19.8l.11.03c-.18.97-.36,1.93-.55,2.9-.63,3.22-1.27,6.45-1.9,9.67-.18.93.15,1.32,1.09,1.32,2.8,0,5.6,0,8.4,0,.22,0,.44,0,.8,0-3.62,6.67-7.18,13.24-10.75,19.81-.03,0-.06-.02-.09-.03.22-1.16.44-2.32.67-3.48.59-3.02,1.2-6.04,1.79-9.06.19-.96-.14-1.35-1.12-1.35-3.01,0-6.01,0-9.09,0Z" style="fill: #fff;"/>
</svg>