<?xml version="1.0" standalone="no"?>
<!DOCTYPE svg PUBLIC "-//W3C//DTD SVG 20010904//EN"
 "http://www.w3.org/TR/2001/REC-SVG-20010904/DTD/svg10.dtd">
<svg version="1.0" xmlns="http://www.w3.org/2000/svg"
 width="600.000000pt" height="600.000000pt" viewBox="0 0 600.000000 600.000000"
 preserveAspectRatio="xMidYMid meet">
<g transform="translate(0.000000,600.000000) scale(0.100000,-0.100000)"
fill="#000000" stroke="none">
<path d="M3252 5920 c-88 -54 -104 -169 -34 -252 33 -39 65 -52 177 -73 205
-37 436 -114 655 -217 305 -144 550 -316 798 -561 410 -405 672 -890 793
-1467 25 -123 38 -150 81 -184 96 -72 234 -22 262 96 13 55 -75 423 -149 625
-164 444 -408 826 -746 1163 -444 443 -991 740 -1590 864 -152 31 -203 33
-247 6z"/>
<path d="M1030 5576 c-159 -56 -208 -95 -510 -403 -262 -267 -305 -319 -365
-448 -53 -112 -74 -196 -85 -341 -23 -303 43 -633 208 -1044 124 -310 307
-650 510 -945 657 -955 1518 -1686 2498 -2121 602 -267 1128 -330 1467 -175
126 57 179 101 435 360 302 305 329 336 375 424 99 187 84 410 -38 584 -69 97
-822 850 -903 901 -171 109 -365 118 -552 25 -67 -33 -102 -64 -321 -280 -135
-134 -248 -243 -252 -243 -14 0 -216 116 -302 173 -405 272 -844 710 -1114
1114 -76 114 -171 280 -171 299 0 5 107 117 238 249 244 247 283 296 323 411
27 75 35 195 20 276 -7 35 -31 101 -53 148 -41 84 -48 91 -472 516 -462 462
-484 480 -628 525 -88 28 -223 26 -308 -5z m270 -341 c30 -16 170 -149 432
-412 322 -323 391 -397 412 -443 32 -69 32 -111 1 -180 -21 -46 -72 -101 -294
-320 -298 -295 -297 -293 -289 -414 4 -63 12 -86 69 -201 145 -291 343 -560
639 -870 375 -392 735 -664 1130 -852 73 -35 156 -36 220 -4 29 15 138 115
305 281 164 162 276 266 304 280 61 30 139 29 194 -4 23 -13 223 -206 444
-428 384 -386 402 -405 417 -458 20 -68 14 -121 -22 -183 -15 -25 -146 -167
-292 -315 -248 -252 -271 -272 -342 -306 -93 -45 -186 -66 -293 -66 -544 -1
-1423 412 -2150 1011 -600 494 -1146 1175 -1467 1829 -238 485 -347 897 -317
1197 11 103 20 134 67 228 30 61 68 104 301 338 152 154 283 278 306 290 82
42 145 43 225 2z"/>
<path d="M3225 4854 c-67 -35 -96 -81 -97 -153 0 -27 7 -61 15 -77 31 -59 59
-75 189 -104 210 -48 365 -112 528 -218 374 -242 620 -606 715 -1055 18 -85
44 -125 99 -151 74 -35 157 -13 209 56 41 53 42 89 7 231 -90 369 -253 665
-509 925 -263 266 -553 433 -919 528 -148 38 -193 41 -237 18z"/>
</g>
</svg>
