<?xml version="1.0" encoding="UTF-8"?>
<svg id="Layer_1" data-name="Layer 1" xmlns="http://www.w3.org/2000/svg" viewBox="0 0 64 64">
  <path d="m.71,64.7V.7h62.58v64H.71Zm30.04-29.47v.89c0,6.76,0,13.52,0,20.27,0,.63.11,1.18.74,1.47.61.28,1.04-.06,1.47-.43,1.88-1.61,3.76-3.22,5.65-4.82,2.71-2.3,5.42-4.59,8.13-6.89.73-.62.74-1.39.02-2.03-.75-.67-1.5-1.35-2.27-2.01-2.17-1.86-4.35-3.72-6.54-5.56-1.06-.89-2.13-1.77-3.19-2.65-.3-.25-.6-.51-.89-.76.82-.75,1.57-1.47,2.35-2.14,2.17-1.87,4.34-3.73,6.53-5.58,1.29-1.09,2.59-2.16,3.88-3.25.91-.77.9-1.55-.02-2.33-2.04-1.73-4.07-3.48-6.12-5.21-2.51-2.13-5.02-4.25-7.52-6.38-.46-.39-.94-.66-1.55-.37-.6.29-.7.82-.69,1.43.01,6.8,0,13.6,0,20.4,0,.21,0,.43,0,.76-.32-.26-.56-.44-.78-.63-1.71-1.47-3.41-2.94-5.11-4.41-2.03-1.75-4.07-3.49-6.09-5.25-.39-.34-.8-.49-1.29-.35-.51.15-.73.56-.81,1.05-.09.55.19.92.58,1.26,1.59,1.36,3.16,2.73,4.75,4.09,2.56,2.19,5.13,4.37,7.7,6.55.12.1.23.21.35.33-1.63,1.43-3.22,2.84-4.84,4.22-2.65,2.27-5.32,4.53-7.97,6.8-.65.55-.77,1.22-.34,1.76.47.58,1.2.62,1.87.04,1.55-1.31,3.07-2.65,4.62-3.95,1.8-1.52,3.63-3.02,5.43-4.54.62-.53,1.21-1.1,1.95-1.78Z" style="fill: #fff;"/>
  <path d="m30.75,35.23c-.74.68-1.33,1.25-1.95,1.78-1.8,1.52-3.63,3.02-5.43,4.54-1.55,1.31-3.07,2.64-4.62,3.95-.67.57-1.4.54-1.87-.04-.43-.54-.31-1.2.34-1.76,2.66-2.27,5.32-4.52,7.97-6.8,1.61-1.38,3.2-2.79,4.84-4.22-.12-.11-.23-.23-.35-.33-2.57-2.19-5.14-4.37-7.7-6.55-1.59-1.36-3.16-2.73-4.75-4.09-.39-.34-.68-.71-.58-1.26.08-.49.3-.89.81-1.05.49-.15.9.01,1.29.35,2.02,1.76,4.06,3.5,6.09,5.25,1.71,1.47,3.41,2.94,5.11,4.41.22.19.46.37.78.63,0-.33,0-.54,0-.76,0-6.8,0-13.6,0-20.4,0-.62.1-1.14.69-1.43.61-.3,1.08-.03,1.55.37,2.5,2.13,5.02,4.25,7.52,6.38,2.04,1.73,4.07,3.48,6.12,5.21.92.78.93,1.56.02,2.33-1.29,1.09-2.59,2.16-3.88,3.25-2.18,1.85-4.36,3.71-6.53,5.58-.78.67-1.52,1.39-2.35,2.14.29.25.59.51.89.76,1.06.89,2.13,1.76,3.19,2.65,2.18,1.85,4.36,3.7,6.54,5.56.77.66,1.52,1.34,2.27,2.01.72.64.72,1.41-.02,2.03-2.71,2.3-5.42,4.59-8.13,6.89-1.89,1.6-3.77,3.21-5.65,4.82-.43.37-.86.71-1.47.43-.64-.29-.74-.84-.74-1.47,0-6.76,0-13.52,0-20.27v-.89Zm13.5-14.65c-3.7-3.15-7.34-6.26-11.07-9.44v18.86c3.72-3.17,7.35-6.25,11.07-9.42Zm-11.07,33.57c3.73-3.19,7.37-6.3,11.04-9.44-3.7-3.17-7.34-6.28-11.04-9.44v18.88Z"/>
  <path d="m44.25,20.58c-3.72,3.17-7.34,6.25-11.07,9.42V11.14c3.73,3.18,7.37,6.28,11.07,9.44Z" style="fill: #fff;"/>
  <path d="m33.17,54.15v-18.88c3.7,3.17,7.34,6.28,11.04,9.44-3.67,3.14-7.31,6.25-11.04,9.44Z" style="fill: #fff;"/>
</svg>