<?xml version="1.0" standalone="no"?>
<!DOCTYPE svg PUBLIC "-//W3C//DTD SVG 20010904//EN"
 "http://www.w3.org/TR/2001/REC-SVG-20010904/DTD/svg10.dtd">
<svg version="1.0" xmlns="http://www.w3.org/2000/svg"
 width="600.000000pt" height="600.000000pt" viewBox="0 0 600.000000 600.000000"
 preserveAspectRatio="xMidYMid meet">
<g transform="translate(0.000000,600.000000) scale(0.100000,-0.100000)"
fill="#000000" stroke="none">
<path d="M3455 5569 c-116 -66 -235 -135 -265 -153 -30 -18 -237 -138 -460
-266 -223 -128 -415 -243 -427 -257 l-23 -24 0 -799 0 -799 23 -24 c12 -14 72
-53 132 -87 61 -34 337 -193 615 -353 648 -372 625 -360 660 -353 16 3 118 57
227 119 109 63 290 167 403 232 559 321 727 419 748 438 l22 20 0 807 0 807
-22 20 c-13 11 -54 38 -93 60 -38 22 -155 89 -260 150 -104 60 -296 170 -425
245 -129 74 -313 181 -409 237 -120 70 -184 101 -205 101 -22 0 -95 -36 -241
-121z m403 -164 c67 -37 121 -71 120 -76 -2 -4 -138 -85 -303 -180 -165 -94
-381 -219 -480 -277 -99 -58 -217 -127 -263 -153 -46 -27 -87 -49 -92 -49 -5
0 -48 23 -97 52 -48 28 -109 63 -135 77 -26 14 -48 31 -48 36 0 6 107 71 237
145 130 74 385 221 567 327 294 170 333 190 351 179 11 -7 75 -43 143 -81z
m414 -237 c48 -29 87 -57 85 -63 -2 -5 -120 -77 -263 -158 -326 -187 -608
-351 -745 -433 -59 -35 -115 -64 -124 -64 -15 0 -205 107 -205 115 0 2 138 82
308 179 169 97 422 243 562 325 140 82 264 150 274 150 11 1 59 -23 108 -51z
m423 -245 c74 -43 135 -82 135 -88 -1 -5 -125 -81 -278 -168 -247 -140 -482
-276 -756 -436 -50 -29 -93 -53 -97 -54 -9 -3 -289 156 -289 164 0 4 87 56
193 117 281 161 621 357 787 455 80 47 151 86 158 86 7 1 73 -34 147 -76z
m-2027 -360 l82 -47 0 -292 c0 -290 0 -293 23 -318 12 -13 112 -77 222 -140
218 -127 246 -136 290 -91 14 13 25 34 26 47 0 13 0 121 -1 241 -1 155 2 217
10 217 7 0 73 -36 148 -80 l137 -80 1 -660 c0 -363 -3 -660 -7 -660 -4 0 -124
68 -266 151 -268 157 -495 289 -718 416 -71 41 -136 79 -142 85 -10 8 -13 154
-13 670 l0 659 63 -36 c34 -19 99 -57 145 -82z m2262 -550 l0 -658 -53 -29
c-77 -44 -845 -488 -971 -563 -59 -35 -111 -62 -113 -59 -3 3 -5 299 -4 658 2
492 5 656 14 664 7 6 120 72 252 147 132 75 377 217 545 316 168 98 311 179
318 180 9 1 12 -137 12 -656z m-1885 334 l90 -52 3 -198 c2 -130 -1 -197 -8
-197 -6 0 -53 25 -105 56 l-95 57 0 193 c0 149 3 194 13 194 6 -1 53 -24 102
-53z"/>
<path d="M2010 2804 c-102 -19 -272 -93 -442 -192 -45 -27 -144 -84 -218 -127
-74 -43 -210 -122 -301 -176 -92 -55 -171 -99 -177 -99 -6 0 -29 33 -51 74
-52 93 -103 140 -175 161 -62 18 -109 13 -170 -17 -74 -38 -301 -170 -335
-195 -67 -51 -100 -176 -69 -263 10 -31 104 -201 373 -675 59 -104 148 -262
197 -350 331 -586 321 -570 390 -606 51 -26 114 -33 168 -19 25 6 121 55 213
107 226 129 264 174 255 306 -3 52 -12 76 -56 153 -29 50 -52 95 -52 100 0 5
38 31 84 57 l84 48 174 -46 c95 -26 236 -64 313 -85 77 -21 219 -60 315 -85
96 -26 214 -57 262 -71 250 -69 371 -94 468 -94 175 0 295 44 540 198 69 43
170 105 225 139 671 408 1528 942 1558 971 133 129 156 355 53 517 -42 65 -84
100 -166 139 -62 29 -71 31 -185 30 -108 0 -130 -3 -220 -33 -55 -18 -129 -48
-165 -66 -68 -34 -353 -199 -980 -567 -179 -105 -310 -169 -310 -150 0 4 10
32 22 62 16 41 22 77 22 140 1 77 -2 92 -32 152 -38 78 -98 142 -169 180 -30
17 -106 40 -189 59 -146 33 -401 109 -594 179 -396 144 -396 144 -520 146 -63
1 -126 0 -140 -2z m370 -234 c452 -161 648 -222 830 -260 58 -12 121 -28 141
-36 107 -46 157 -168 110 -269 -35 -77 -85 -105 -184 -105 -74 0 -144 16 -471
109 -137 39 -260 71 -273 71 -37 0 -83 -51 -83 -93 0 -59 29 -78 185 -121 77
-21 194 -53 260 -73 66 -19 199 -50 295 -69 159 -33 187 -35 305 -32 189 6
229 21 550 209 50 28 115 66 145 84 63 36 150 87 490 285 293 171 379 213 496
241 103 24 170 21 232 -10 120 -61 148 -244 53 -342 -31 -32 -1829 -1147
-1947 -1207 -103 -53 -247 -72 -367 -48 -42 8 -218 53 -390 100 -171 46 -391
105 -487 131 -96 26 -231 62 -300 80 -69 19 -157 42 -197 52 l-72 17 -115 -67
c-63 -37 -117 -67 -120 -67 -2 0 -32 51 -67 113 -34 61 -147 262 -252 445
-105 186 -185 337 -181 342 5 5 84 51 175 103 198 113 403 232 517 299 155 90
271 142 387 172 11 3 58 3 105 2 72 -3 107 -12 230 -56z m-1758 -312 c9 -7 80
-128 158 -268 79 -140 180 -320 225 -400 516 -907 487 -855 483 -882 -3 -25
-63 -67 -224 -157 -137 -76 -148 -74 -210 37 -40 73 -159 282 -289 512 -45 80
-124 219 -175 310 -94 166 -150 263 -252 440 -105 181 -115 211 -80 243 9 8
55 37 102 63 222 125 229 127 262 102z"/>
<path d="M469 2031 c-62 -62 -20 -171 65 -171 25 0 45 9 68 29 27 24 33 36 33
71 0 35 -6 47 -33 71 -44 40 -93 40 -133 0z"/>
</g>
</svg>
