<?xml version="1.0" standalone="no"?>
<!DOCTYPE svg PUBLIC "-//W3C//DTD SVG 20010904//EN"
 "http://www.w3.org/TR/2001/REC-SVG-20010904/DTD/svg10.dtd">
<svg version="1.0" xmlns="http://www.w3.org/2000/svg"
 width="600.000000pt" height="600.000000pt" viewBox="0 0 600.000000 600.000000"
 preserveAspectRatio="xMidYMid meet">
<g transform="translate(0.000000,600.000000) scale(0.100000,-0.100000)"
fill="#000000" stroke="none">
<path d="M1100 5924 c-243 -52 -430 -215 -517 -452 l-28 -77 -3 -2015 c-2
-1468 0 -2031 8 -2075 23 -120 89 -251 173 -342 53 -58 119 -105 206 -148 128
-63 142 -65 688 -65 l492 0 5 -47 c22 -191 61 -300 128 -357 74 -63 120 -79
250 -85 l118 -6 32 -55 c36 -59 103 -112 166 -130 55 -15 221 -12 278 5 61 18
125 71 162 133 l27 47 5 249 5 248 73 19 c188 48 348 176 435 349 75 150 77
169 77 766 l0 514 33 0 c82 0 251 -66 371 -145 58 -39 116 -51 169 -37 37 10
38 10 68 -34 83 -122 137 -287 146 -450 7 -117 10 -113 -93 -111 -34 0 -82 -6
-108 -13 -63 -17 -137 -85 -167 -152 l-24 -53 -3 -539 c-3 -519 -2 -542 18
-607 25 -84 85 -148 169 -180 48 -18 73 -20 176 -17 100 3 127 7 162 26 51 27
109 84 134 135 l19 37 98 -1 c104 -1 148 9 225 54 119 70 177 242 177 529 0
285 -60 468 -174 529 l-45 24 7 60 c14 119 7 444 -11 537 -49 244 -163 478
-312 637 -33 35 -45 57 -50 92 -10 64 -33 99 -102 151 -150 115 -371 221 -558
269 -70 18 -260 48 -307 49 -17 0 -18 57 -18 1065 0 1168 1 1148 -60 1280 -95
206 -274 347 -498 391 -107 21 -2124 19 -2222 -2z m1920 -182 c0 -7 -122 -210
-150 -248 -8 -12 -25 -26 -37 -32 -31 -17 -1201 -17 -1238 0 -16 7 -54 58
-105 141 -44 71 -80 133 -80 138 0 5 328 9 805 9 443 0 805 -3 805 -8z m-1730
-179 c120 -204 150 -242 228 -280 l57 -28 640 0 640 0 57 28 c77 38 107 74
228 280 69 118 110 177 121 177 40 0 152 -43 208 -81 114 -76 193 -206 212
-347 6 -49 9 -452 7 -1097 l-3 -1020 -45 -7 c-25 -3 -94 -14 -155 -23 -188
-28 -418 -117 -589 -228 -146 -96 -196 -153 -196 -225 0 -20 -14 -44 -47 -81
-167 -185 -267 -399 -319 -676 -18 -99 -24 -334 -11 -452 l8 -73 -516 0 c-576
0 -554 3 -576 -69 -9 -31 -8 -43 5 -69 30 -58 23 -57 496 -57 381 0 435 -2
433 -15 -1 -8 -9 -41 -18 -72 -8 -32 -19 -90 -23 -130 l-7 -73 -469 -3 c-396
-2 -479 0 -530 13 -151 38 -261 126 -328 262 l-43 86 -3 2016 c-2 1993 -2
2017 18 2082 44 146 153 259 303 315 110 41 100 48 217 -153z m2677 -2574
c123 -16 295 -66 412 -118 103 -46 257 -137 281 -166 10 -12 -11 -40 -116
-155 -71 -77 -133 -140 -139 -140 -5 0 -30 14 -55 31 -165 112 -430 181 -635
164 -162 -13 -346 -71 -474 -150 -40 -25 -76 -45 -81 -45 -10 0 -260 276 -260
287 0 16 157 113 265 164 119 56 307 113 417 127 103 13 293 14 385 1z m873
-569 c103 -139 175 -322 205 -520 15 -97 19 -325 7 -415 l-7 -50 -50 -3 c-50
-3 -50 -3 -73 42 -13 24 -34 54 -47 66 -21 20 -23 28 -18 93 17 224 -61 503
-185 669 l-44 58 67 76 c77 85 69 86 145 -16z m-1967 14 c31 -33 57 -66 57
-73 0 -6 -18 -35 -39 -64 -57 -75 -117 -207 -147 -322 -21 -80 -27 -132 -31
-260 -5 -156 -6 -161 -32 -191 -15 -16 -33 -44 -40 -61 -13 -32 -44 -43 -97
-35 -27 4 -34 53 -34 246 0 329 76 570 248 784 19 24 39 42 46 40 6 -2 37 -30
69 -64z m817 -521 c0 -269 -5 -517 -10 -552 -21 -149 -131 -301 -264 -366 -39
-19 -83 -37 -98 -41 l-27 -6 -3 239 c-3 231 -4 240 -28 286 -51 101 -135 148
-268 150 l-87 2 -3 65 c-8 169 55 375 155 506 22 30 25 31 68 21 57 -13 100
-1 184 54 108 70 260 127 344 128 l37 1 0 -487z m-653 -485 c64 -17 63 -11 63
-582 0 -303 -4 -525 -10 -540 -15 -40 -58 -56 -150 -56 -77 0 -83 2 -111 29
l-29 29 0 532 c0 361 3 538 11 551 6 12 25 27 42 35 34 15 132 16 184 2z
m1692 -9 c11 -8 25 -27 31 -43 15 -44 14 -1037 -2 -1071 -18 -41 -57 -55 -148
-55 -77 0 -83 2 -111 29 l-29 29 0 535 c0 611 -5 574 86 588 65 10 146 4 173
-12z m-2119 -574 l0 -395 -77 0 c-113 1 -155 22 -181 92 -31 84 -42 160 -42
303 0 142 11 219 42 302 27 73 63 90 191 92 l67 1 0 -395z m2508 384 c66 -14
88 -40 113 -135 31 -115 31 -384 0 -498 -12 -44 -29 -88 -39 -99 -28 -32 -77
-47 -157 -47 l-75 0 0 395 0 395 55 0 c29 0 76 -5 103 -11z"/>
<path d="M2950 4653 c-14 -9 -97 -78 -185 -153 -88 -75 -295 -250 -460 -390
-165 -140 -357 -303 -426 -362 -70 -59 -131 -108 -136 -108 -6 0 -63 72 -129
161 -65 88 -126 165 -135 170 -63 33 -149 -16 -149 -84 0 -30 25 -69 167 -257
107 -142 175 -225 192 -232 51 -19 82 -1 252 145 196 168 425 361 829 701 162
136 303 260 312 274 28 42 23 79 -16 118 -39 39 -77 44 -116 17z"/>
<path d="M4729 5551 c-22 -23 -29 -39 -29 -70 0 -36 7 -49 76 -123 217 -237
345 -531 375 -859 37 -408 -96 -798 -383 -1124 -78 -88 -86 -122 -43 -173 54
-65 112 -48 205 60 290 335 435 742 417 1173 -7 176 -28 297 -78 451 -73 227
-207 457 -356 613 -71 74 -81 81 -116 81 -29 0 -46 -7 -68 -29z"/>
<path d="M4449 5271 c-46 -47 -41 -88 22 -157 148 -164 242 -350 280 -554 15
-83 16 -297 0 -376 -38 -200 -128 -380 -267 -535 -56 -62 -64 -77 -64 -111 0
-31 7 -46 30 -70 27 -27 36 -30 73 -25 35 5 51 15 96 64 158 171 277 411 318
637 24 133 21 353 -6 483 -47 228 -169 463 -320 621 -45 46 -55 52 -92 52 -32
0 -47 -6 -70 -29z"/>
<path d="M4178 5000 c-30 -23 -42 -69 -28 -106 6 -14 32 -51 59 -81 55 -61 97
-136 132 -233 20 -56 23 -84 24 -205 0 -112 -4 -151 -19 -195 -32 -94 -77
-177 -128 -237 -81 -97 -92 -143 -47 -192 43 -46 103 -39 156 17 104 111 188
271 218 417 21 102 21 277 0 375 -30 143 -112 303 -205 401 -50 53 -60 59 -96
59 -26 0 -51 -7 -66 -20z"/>
</g>
</svg>
