<?xml version="1.0" encoding="UTF-8"?>
<svg id="Layer_1" data-name="Layer 1" xmlns="http://www.w3.org/2000/svg" viewBox="0 0 64 64">
  <path d="m0,64V0h64v64H0Zm28.94-15.92c-.8,0-1.56,0-2.32,0-2.14.02-4.28-.03-6.42.07-1.53.07-2.79,1.23-3.09,2.73-.15.76-.12,1.57-.13,2.35-.02,1.17.19,1.37,1.37,1.37,8.67,0,17.34,0,26.01,0,.1,0,.21,0,.31,0,.81-.01,1.09-.29,1.1-1.09,0-.46,0-.91,0-1.37,0-2.56-1.5-4.06-4.07-4.07-2.23,0-4.45,0-6.68,0-.24,0-.48,0-.7,0-.03-.17-.05-.23-.05-.29,0-3.22,0-6.45,0-9.67,0-.16.02-.35.11-.47.77-.97,1.07-2.09,1-3.37.34,0,.65.01.96,0,2.85-.12,4.29-1.25,4.93-3.99.66-2.82,1.26-5.67,1.88-8.5.43-2.01.98-3.99.88-6.08-.08-1.71-.68-3.16-2.03-4.25-1.76-1.42-3.77-2.42-5.84-3.29-1.66-.7-3.4-1.05-5.22-.95-3.05.16-5.32,2.02-5.97,4.99-1.05,4.8-2.08,9.6-3.11,14.41-.59,2.74.29,4.52,2.84,5.72.69.33,1.42.57,2.15.8.91.29.92.27.92,1.21,0,1.13.1,2.24.83,3.19.18.24.32.58.32.87.02,2.99.01,5.99.01,8.98,0,.2-.02.41-.03.68ZM12.18,11.5c-.2.19-.52.37-.64.64-.19.41.04.78.44.96,1.74.78,3.48,1.55,5.24,2.3.57.24,1.11-.08,1.16-.64.04-.46-.23-.73-.62-.9-1.65-.72-3.3-1.44-4.96-2.16-.15-.07-.31-.11-.62-.21Zm4.28,8.91c.55.07.97-.12,1.06-.68.08-.47-.18-.84-.66-.88-1.63-.14-3.26-.25-4.9-.34-.46-.02-.8.29-.83.76-.03.48.25.77.74.84.12.02.25.04.37.05,1.41.08,2.81.17,4.22.25Zm4.62-10.14c-.18-.27-.28-.49-.44-.66-.21-.22-.47-.4-.71-.6-.84-.71-1.68-1.42-2.53-2.12-.39-.32-.81-.34-1.17.04-.31.34-.34.77,0,1.06,1.16,1.01,2.33,2,3.54,2.95.17.14.58.12.8,0,.21-.11.33-.42.51-.68Zm-7.19,15.91c1.07-.23,2.31-.46,3.52-.8.24-.07.49-.56.49-.86,0-.43-.39-.73-.83-.65-1.22.21-2.43.47-3.64.76-.43.1-.65.46-.56.91.08.45.39.66,1.02.65Z" style="fill: #fff;"/>
  <path d="m28.94,48.08c.01-.28.03-.48.03-.68,0-2.99.01-5.99-.01-8.98,0-.29-.14-.64-.32-.87-.73-.95-.83-2.06-.83-3.19,0-.94-.01-.92-.92-1.21-.73-.23-1.46-.48-2.15-.8-2.55-1.2-3.43-2.98-2.84-5.72,1.03-4.8,2.06-9.61,3.11-14.41.65-2.97,2.92-4.83,5.97-4.99,1.82-.1,3.56.25,5.22.95,2.07.87,4.08,1.87,5.84,3.29,1.34,1.09,1.94,2.54,2.03,4.25.1,2.09-.44,4.07-.88,6.08-.62,2.84-1.21,5.68-1.88,8.5-.65,2.75-2.09,3.88-4.93,3.99-.31.01-.62,0-.96,0,.07,1.28-.23,2.4-1,3.37-.09.11-.11.31-.11.47,0,3.22,0,6.45,0,9.67,0,.06.02.12.05.29.22,0,.46,0,.7,0,2.23,0,4.45,0,6.68,0,2.57,0,4.07,1.51,4.07,4.07,0,.46,0,.91,0,1.37-.01.79-.3,1.07-1.1,1.09-.1,0-.21,0-.31,0-8.67,0-17.34,0-26.01,0-1.18,0-1.39-.19-1.37-1.37.01-.79-.02-1.59.13-2.35.3-1.5,1.56-2.66,3.09-2.73,2.14-.1,4.28-.06,6.42-.07.76,0,1.53,0,2.32,0Zm13.32-29.99c.05-.31.11-.56.14-.8.3-2.31-.35-4.19-2.49-5.38-.76-.42-1.51-.88-2.29-1.27-.93-.47-1.87-.04-2.18.95-.04.12-.06.24-.09.36-.1.53-.39.83-.95.74-.46-.07-.82-.6-.63-1.1.22-.61.58-1.18.88-1.76.07-.13.17-.24.27-.38-.84-.24-1.37-.06-1.71.64-.25.52-.38,1.09-.56,1.64-.14.41-.4.69-.87.63-.49-.06-.76-.37-.71-.86.06-.47.17-.94.33-1.38.16-.44.41-.84.64-1.27-.65-.13-1.15.13-1.43.61-.37.61-.63,1.29-.88,1.97-.21.58-.54.87-1.02.75-.46-.11-.71-.58-.58-1.15.11-.45.26-.89.43-1.45-1.73,1.1-1.99,2.77-2.31,4.52.29,0,.49,0,.7,0,1.66,0,3.33.05,4.99-.05,2.02-.12,3.69.85,5.43,1.59.42.18.54.59.35,1-.19.42-.55.63-1.02.44-.61-.25-1.22-.52-1.82-.8-.92-.43-1.86-.65-2.89-.61-1.66.07-3.33.05-4.99.07-1.28.01-1.28,0-1.35,1.43.31,0,.62,0,.93,0,1.46,0,2.91.06,4.37,0,2.09-.09,3.87.79,5.69,1.62.46.21.54.63.36,1.06-.18.42-.57.54-.99.41-.37-.12-.74-.29-1.08-.47-1.36-.7-2.78-1.03-4.32-.98-1.78.05-3.57.01-5.38.01-.09.42-.18.83-.29,1.34.57,0,1.04,0,1.52,0,1.31,0,2.62.06,3.93.01,2.02-.08,3.75.77,5.5,1.59.45.21.57.62.38,1.05-.19.44-.58.58-1.04.41-.41-.16-.8-.34-1.19-.54-1.21-.61-2.47-.93-3.84-.89-1.7.04-3.41-.02-5.11-.03-.16,0-.32.02-.51.03-.09.42-.17.81-.26,1.26,1.78.05,3.48.16,5.18.14,2.14-.03,4.03.67,5.84,1.7.23.13.44.52.43.79,0,.24-.28.58-.51.67-.25.09-.63,0-.87-.15-1.73-1.03-3.59-1.44-5.59-1.39-1.6.04-3.19,0-4.86,0-.19.87-.46,1.85-.61,2.85-.15,1.02.2,1.89,1.05,2.56.09-1.01.15-1.96.28-2.9.08-.56.5-.84.95-.76.46.09.69.5.64,1.05-.07.74-.17,1.49-.16,2.23.02,1.1.54,1.62,1.61,1.74-.02-.13-.06-.25-.06-.37.02-1.16.01-2.31.08-3.46.03-.47.4-.75.88-.68.47.06.73.38.71.87,0,.21-.06.41-.06.62-.03.81-.1,1.62-.05,2.42.05.82.58,1.19,1.49,1.14-.02-.14-.05-.28-.05-.42.02-1.09.01-2.19.09-3.28.04-.48.4-.8.92-.72.51.08.73.44.67.95-.02.21-.06.41-.07.62-.03.64-.09,1.29-.06,1.93.04.86.54,1.32,1.41,1.33,1.1.02,2.2.04,3.3,0,1.56-.07,2.24-.64,2.67-2.13.13-.43.24-.87.37-1.35-.79-.45-1.57-.88-2.34-1.32-.56-.32-.73-.79-.46-1.23.25-.41.71-.49,1.26-.19.62.33,1.23.68,1.9,1.06.07-.3.11-.55.19-.77.2-.52.05-.83-.47-1.05-.69-.29-1.36-.63-1.99-1.03-.23-.15-.42-.52-.43-.8,0-.21.25-.56.46-.63.25-.09.61,0,.87.11.69.3,1.35.67,2.05,1.02.07-.29.09-.48.15-.65.19-.5.03-.79-.46-1.01-.63-.27-1.23-.61-1.82-.96-.22-.13-.48-.35-.51-.56-.04-.26.06-.69.25-.81.25-.15.69-.17.97-.05.7.29,1.35.68,2.06,1.04.08-.37.1-.67.21-.93.17-.43,0-.63-.37-.81-.65-.32-1.28-.68-1.92-1.04-.54-.31-.7-.74-.45-1.18.23-.42.7-.51,1.24-.23.62.33,1.24.67,1.93,1.04Zm1.82,34.85c.32-1.76-.24-3.27-2.6-3.23-5.22.09-10.43.03-15.65.03-1.7,0-3.41,0-5.11,0-.69,0-1.26.24-1.68.78-.58.74-.46,1.58-.41,2.43h25.46Zm-11.48-4.89v-9.19h-1.94v9.19h1.94Zm-3.13-14.31c-.06,1.22-.25,2.46,1,3.24.75.47,1.67.41,2.39-.12.76-.56,1.04-1.54.75-2.62-1.37-.16-2.74-.33-4.14-.5Z"/>
  <path d="m12.18,11.5c.31.1.47.14.62.21,1.65.72,3.3,1.44,4.96,2.16.4.17.66.43.62.9-.05.56-.59.88-1.16.64-1.75-.75-3.5-1.52-5.24-2.3-.41-.18-.63-.55-.44-.96.12-.27.45-.46.64-.64Z"/>
  <path d="m16.46,20.41c-1.41-.08-2.81-.17-4.22-.25-.12,0-.25-.03-.37-.05-.48-.07-.76-.37-.74-.84.03-.48.36-.79.83-.76,1.63.08,3.27.2,4.9.34.49.04.74.42.66.88-.09.57-.52.76-1.06.68Z"/>
  <path d="m21.08,10.27c-.19.26-.3.57-.51.68-.22.11-.63.13-.8,0-1.2-.95-2.38-1.94-3.54-2.95-.34-.3-.31-.73,0-1.06.36-.38.78-.36,1.17-.04.85.7,1.69,1.41,2.53,2.12.24.2.5.38.71.6.16.17.27.39.44.66Z"/>
  <path d="m13.89,26.19c-.63.02-.94-.2-1.02-.65-.09-.45.13-.81.56-.91,1.21-.28,2.42-.54,3.64-.76.43-.07.83.23.83.65,0,.3-.25.8-.49.86-1.21.34-2.45.57-3.52.8Z"/>
  <path d="m42.26,18.1c-.69-.37-1.3-.71-1.93-1.04-.54-.28-1.01-.19-1.24.23-.24.44-.09.87.45,1.18.63.36,1.26.72,1.92,1.04.38.18.54.38.37.81-.11.26-.13.56-.21.93-.71-.37-1.36-.76-2.06-1.04-.28-.11-.71-.1-.97.05-.19.11-.29.54-.25.81.03.21.3.44.51.56.59.35,1.19.68,1.82.96.49.22.65.51.46,1.01-.07.17-.09.36-.15.65-.7-.36-1.36-.72-2.05-1.02-.26-.12-.62-.2-.87-.11-.21.07-.47.42-.46.63.01.28.2.65.43.8.63.4,1.3.73,1.99,1.03.53.22.67.53.47,1.05-.09.22-.12.47-.19.77-.67-.38-1.28-.72-1.9-1.06-.55-.3-1.01-.22-1.26.19-.26.44-.09.91.46,1.23.77.44,1.55.87,2.34,1.32-.13.48-.24.92-.37,1.35-.43,1.5-1.11,2.07-2.67,2.13-1.1.05-2.2.02-3.3,0-.87-.02-1.37-.47-1.41-1.33-.03-.64.03-1.28.06-1.93,0-.21.05-.41.07-.62.06-.52-.16-.87-.67-.95-.52-.08-.88.25-.92.72-.08,1.09-.07,2.19-.09,3.28,0,.14.03.28.05.42-.91.05-1.44-.32-1.49-1.14-.05-.8.02-1.62.05-2.42,0-.21.06-.41.06-.62.01-.49-.24-.81-.71-.87-.48-.06-.85.21-.88.68-.07,1.15-.06,2.31-.08,3.46,0,.12.04.24.06.37-1.07-.12-1.59-.65-1.61-1.74-.01-.74.09-1.49.16-2.23.05-.55-.18-.96-.64-1.05-.45-.09-.87.2-.95.76-.13.94-.19,1.89-.28,2.9-.85-.67-1.2-1.54-1.05-2.56.15-1,.42-1.98.61-2.85,1.67,0,3.27.03,4.86,0,2-.05,3.86.36,5.59,1.39.24.15.63.24.87.15.23-.08.51-.43.51-.67,0-.27-.2-.66-.43-.79-1.8-1.03-3.7-1.73-5.84-1.7-1.7.03-3.4-.08-5.18-.14.09-.44.17-.84.26-1.26.19-.01.35-.03.51-.03,1.7.01,3.41.07,5.11.03,1.37-.03,2.63.28,3.84.89.39.2.79.38,1.19.54.46.18.84.03,1.04-.41.19-.43.07-.84-.38-1.05-1.75-.82-3.48-1.66-5.5-1.59-1.31.05-2.62,0-3.93-.01-.48,0-.95,0-1.52,0,.11-.51.2-.92.29-1.34,1.81,0,3.6.04,5.38-.01,1.54-.04,2.96.28,4.32.98.35.18.71.35,1.08.47.42.13.81.01.99-.41.18-.43.1-.85-.36-1.06-1.81-.83-3.6-1.7-5.69-1.62-1.45.06-2.91,0-4.37,0-.31,0-.62,0-.93,0,.07-1.42.07-1.42,1.35-1.43,1.66-.01,3.33,0,4.99-.07,1.03-.04,1.97.18,2.89.61.6.28,1.21.55,1.82.8.47.19.83-.02,1.02-.44.19-.41.06-.83-.35-1-1.74-.74-3.41-1.71-5.43-1.59-1.66.1-3.33.04-4.99.05-.2,0-.41,0-.7,0,.32-1.75.58-3.42,2.31-4.52-.17.56-.32,1-.43,1.45-.13.57.11,1.03.58,1.15.48.12.8-.17,1.02-.75.25-.67.51-1.35.88-1.97.28-.48.78-.74,1.43-.61-.22.44-.48.84-.64,1.27-.16.44-.28.91-.33,1.38-.06.48.22.79.71.86.47.06.73-.22.87-.63.19-.55.31-1.12.56-1.64.34-.71.87-.88,1.71-.64-.1.14-.2.25-.27.38-.31.58-.66,1.15-.88,1.76-.18.51.17,1.03.63,1.1.56.08.85-.21.95-.74.02-.12.05-.25.09-.36.31-.99,1.26-1.42,2.18-.95.78.39,1.52.85,2.29,1.27,2.14,1.19,2.79,3.06,2.49,5.38-.03.25-.08.49-.14.8Z" style="fill: #fff;"/>
  <path d="m44.08,52.94h-25.46c-.05-.85-.17-1.69.41-2.43.43-.54.99-.78,1.68-.78,1.7.01,3.41,0,5.11,0,5.22,0,10.43.06,15.65-.03,2.36-.04,2.92,1.47,2.6,3.23Z" style="fill: #fff;"/>
  <path d="m32.6,48.06h-1.94v-9.19h1.94v9.19Z" style="fill: #fff;"/>
  <path d="m29.47,33.74c1.4.17,2.77.33,4.14.5.29,1.09.01,2.06-.75,2.62-.72.54-1.64.59-2.39.12-1.26-.79-1.06-2.03-1-3.24Z" style="fill: #fff;"/>
</svg>