<?xml version="1.0" standalone="no"?> <!DOCTYPE svg PUBLIC "-//W3C//DTD SVG 20010904//EN" "http://www.w3.org/TR/2001/REC-SVG-20010904/DTD/svg10.dtd"> <svg version="1.0" xmlns="http://www.w3.org/2000/svg" width="600.000000pt" height="600.000000pt" viewBox="0 0 600.000000 600.000000" preserveAspectRatio="xMidYMid meet"> <g transform="translate(0.000000,600.000000) scale(0.100000,-0.100000)" fill="#375dfe" stroke="none"> <path d="M5095 5004 c-113 -65 -328 -123 -520 -140 -44 -4 -350 -8 -680 -8 l-600 -1 -50 -27 c-96 -50 -148 -124 -219 -308 -68 -175 -162 -305 -265 -366 -41 -24 -39 -30 13 -36 25 -3 64 -15 87 -27 l42 -22 55 53 c108 105 193 234 312 473 l55 110 70 7 c39 3 160 16 270 27 679 72 865 88 774 66 -68 -16 -248 -55 -352 -76 l-119 -24 -34 -46 c-19 -26 -34 -50 -34 -54 0 -14 558 2 655 19 324 56 506 173 602 389 15 34 12 33 -62 -9z"/> <path d="M2704 4930 c-39 -10 -147 -25 -240 -34 -410 -40 -616 -122 -732 -292 -41 -60 -39 -78 13 -109 l47 -27 37 34 c143 134 380 229 676 273 121 17 149 31 237 113 44 41 59 64 41 61 -5 -1 -40 -9 -79 -19z"/> <path d="M2473 4715 c-135 -32 -273 -74 -273 -84 0 -5 7 -25 15 -44 32 -77 11 -181 -47 -233 -44 -41 -74 -53 -190 -79 -249 -55 -268 -70 -101 -79 165 -9 197 -30 269 -170 21 -42 43 -74 49 -73 5 2 28 45 50 95 31 70 48 97 75 114 69 46 116 131 167 303 l18 60 3 -58 c7 -141 -50 -307 -125 -362 -34 -25 -51 -51 -99 -153 -31 -68 -60 -125 -64 -127 -7 -4 -57 66 -139 193 -49 78 -57 64 -48 -82 17 -276 224 -530 531 -652 86 -34 258 -74 318 -74 l33 0 -40 34 c-77 65 -103 92 -155 159 -28 37 -58 67 -67 67 -76 0 -208 121 -242 222 -64 189 6 322 243 459 108 63 246 207 246 257 0 13 -20 31 -59 55 -34 21 -76 60 -101 92 -31 40 -48 54 -59 50 -9 -4 -92 -26 -186 -51 -286 -74 -279 -51 13 42 83 27 152 53 152 57 0 14 -63 87 -74 86 -6 0 -57 -11 -113 -24z"/> <path d="M3790 4679 c-30 -4 -127 -15 -215 -24 -227 -22 -212 -17 -241 -82 -13 -31 -23 -58 -21 -59 2 -2 100 -4 217 -4 l214 -1 29 33 c36 43 97 131 97 140 0 9 -3 9 -80 -3z"/> <path d="M2105 4608 c-11 -6 -21 -12 -23 -13 -1 -1 4 -15 13 -31 65 -124 -109 -229 -190 -114 l-20 28 -25 -20 c-33 -26 -13 -64 50 -95 150 -76 320 82 245 227 -17 33 -21 34 -50 18z"/> <path d="M1973 4548 c-41 -25 -44 -60 -8 -84 52 -34 115 29 81 81 -19 30 -30 30 -73 3z"/> <path d="M4805 4544 c-174 -32 -728 -43 -917 -18 l-43 6 -58 -67 c-32 -37 -56 -69 -54 -72 3 -2 69 -15 148 -28 389 -66 657 -58 834 26 67 31 176 112 202 149 17 24 -1 25 -112 4z"/> <path d="M1649 4419 c-79 -79 -100 -181 -58 -280 26 -61 32 -61 47 -3 22 81 129 144 243 144 44 0 50 12 15 28 -14 6 -61 43 -105 81 -94 83 -90 82 -142 30z"/> <path d="M3236 4389 c-35 -63 -33 -65 86 -78 197 -22 211 -20 281 48 34 33 60 62 57 64 -3 2 -93 7 -200 11 l-195 7 -29 -52z"/> <path d="M3615 4279 c-57 -60 -60 -56 84 -108 362 -132 569 -144 761 -45 130 67 129 74 -7 80 -199 9 -417 42 -676 103 -114 27 -106 29 -162 -30z"/> <path d="M3127 4220 c-46 -61 -45 -62 38 -85 105 -28 169 -19 238 35 70 55 70 57 0 65 -32 4 -96 13 -143 21 -47 8 -87 14 -90 14 -3 0 -23 -23 -43 -50z"/> <path d="M3453 4127 c-28 -23 -52 -47 -52 -52 -3 -39 283 -175 407 -195 109 -17 343 23 342 58 0 4 -49 19 -109 34 -121 30 -300 95 -435 157 -106 49 -90 49 -153 -2z"/> <path d="M3001 4073 l-43 -38 29 -36 c15 -20 33 -44 38 -53 12 -19 96 16 173 74 52 38 54 35 -39 60 -41 10 -83 22 -94 25 -15 5 -33 -4 -64 -32z"/> <path d="M2612 4034 c-216 -107 -181 -421 54 -490 246 -71 431 234 257 426 -80 90 -207 116 -311 64z m197 -79 c97 -50 126 -174 61 -263 -98 -135 -313 -65 -313 102 0 131 139 220 252 161z"/> <path d="M2668 3904 c-66 -35 -79 -135 -25 -189 84 -84 210 -33 210 84 0 92 -102 150 -185 105z"/> <path d="M3284 3995 c-27 -19 -53 -37 -59 -39 -5 -3 21 -35 59 -71 122 -120 256 -160 401 -120 36 9 65 20 65 24 -1 3 -35 22 -78 41 -82 37 -223 122 -284 171 -46 36 -44 36 -104 -6z"/> <path d="M3098 3885 c-53 -28 -54 -40 -9 -88 60 -66 181 -117 273 -117 45 0 48 10 9 33 -16 9 -70 57 -121 107 -51 49 -95 90 -99 90 -3 -1 -27 -12 -53 -25z"/> <path d="M3037 3667 c-35 -80 -36 -75 30 -127 168 -132 342 -213 536 -249 68 -12 59 -3 -58 63 -128 72 -259 170 -386 286 l-95 88 -27 -61z"/> <path d="M2920 3519 c-25 -16 -69 -37 -97 -45 -66 -19 -67 -17 16 -105 114 -123 242 -188 384 -197 l87 -5 -41 69 c-23 38 -51 89 -61 115 -14 34 -30 52 -59 68 -22 13 -70 47 -107 77 -78 63 -65 60 -122 23z"/> <path d="M3280 3334 c0 -44 145 -222 244 -300 130 -104 249 -153 366 -154 l55 0 -94 50 c-116 62 -290 186 -404 288 -80 71 -167 132 -167 116z"/> <path d="M3470 3266 c41 -51 286 -219 405 -278 132 -66 197 -83 324 -83 116 0 160 15 89 30 -83 18 -364 148 -533 246 -68 39 -111 56 -175 70 -47 9 -94 21 -105 25 -18 7 -19 6 -5 -10z"/> <path d="M2672 3113 c-17 -27 -46 -65 -66 -86 -55 -59 -41 -63 59 -18 112 51 151 116 84 140 -45 16 -44 16 -77 -36z"/> <path d="M2967 3121 c-75 -128 -174 -205 -257 -202 -106 4 -167 -89 -129 -198 15 -42 25 -39 33 8 8 51 44 93 108 125 62 31 63 31 36 -23 -23 -47 -35 -125 -20 -134 5 -4 22 13 37 37 71 112 231 139 302 51 15 -19 31 -31 35 -29 16 10 8 79 -13 113 -20 33 -21 34 -74 28 -95 -10 -92 41 11 144 l76 76 -48 17 c-65 22 -77 20 -97 -13z"/> <path d="M2366 2965 c-79 -28 -142 -129 -121 -194 9 -31 20 -26 40 20 10 22 39 58 64 80 38 34 81 89 81 104 0 8 -23 5 -64 -10z"/> <path d="M2449 2939 c-29 -29 -49 -81 -49 -126 0 -64 13 -69 45 -19 19 30 48 56 91 81 73 43 78 56 31 73 -50 18 -94 15 -118 -9z"/> <path d="M740 2385 c-5 -14 -10 -32 -10 -38 0 -7 -23 -127 -51 -267 -28 -140 -54 -268 -56 -283 l-5 -28 88 3 89 3 12 70 c7 39 15 85 18 103 l6 33 136 -3 136 -3 65 -102 64 -103 99 0 c55 0 99 3 99 8 0 4 -34 52 -75 107 -81 106 -81 107 -12 119 109 20 203 224 150 326 -38 73 -48 75 -415 78 l-328 3 -10 -26z m549 -116 c38 -14 48 -44 28 -92 -28 -66 -47 -72 -264 -75 -216 -4 -204 -9 -184 68 5 19 12 52 16 73 l6 37 183 0 c107 0 196 -5 215 -11z"/> <path d="M1966 2401 c-2 -3 -7 -28 -11 -55 -3 -27 -9 -55 -12 -62 -4 -12 24 -14 156 -14 152 0 161 -1 161 -19 0 -11 -20 -115 -45 -233 -58 -276 -62 -248 40 -248 60 0 87 4 89 13 3 6 24 118 48 247 l44 235 159 5 158 5 13 60 c6 33 10 63 8 66 -5 8 -803 8 -808 0z"/> <path d="M2916 2398 c-2 -7 -10 -47 -17 -88 -7 -41 -33 -178 -59 -303 -31 -151 -43 -230 -36 -233 6 -2 171 -3 366 -2 l355 3 11 55 c6 30 9 59 7 63 -3 4 -126 7 -274 6 -149 -1 -272 0 -274 2 -2 2 2 31 9 64 l12 60 238 1 c266 1 249 -3 261 77 l7 47 -241 0 -242 0 7 38 c4 20 10 48 14 62 l6 25 277 3 276 2 10 38 c5 20 11 48 13 62 l3 25 -363 3 c-285 2 -363 0 -366 -10z"/> <path d="M3968 2399 c-157 -23 -236 -113 -277 -316 -58 -283 -7 -316 478 -311 l265 3 6 25 c4 14 10 42 14 63 l7 37 -276 0 -277 0 -30 31 c-70 70 4 293 110 331 28 10 99 12 284 10 l247 -3 6 23 c17 78 22 108 17 113 -8 8 -511 4 -574 -6z"/> <path d="M4676 2393 c-2 -10 -8 -38 -11 -63 -4 -25 -29 -155 -56 -290 -27 -135 -49 -251 -49 -258 0 -10 21 -12 87 -10 l87 3 21 120 20 120 205 3 c112 1 210 0 216 -2 9 -3 7 -26 -7 -88 -10 -46 -22 -100 -25 -121 l-7 -38 89 3 89 3 27 140 c15 77 43 217 63 310 19 94 35 173 35 178 0 4 -40 7 -89 7 -103 0 -89 17 -117 -152 l-17 -108 -213 0 c-249 0 -227 -17 -189 144 14 58 25 108 25 111 0 3 -40 5 -89 5 -77 0 -90 -3 -95 -17z"/> <path d="M1615 2118 c-10 -30 -25 -94 -25 -105 0 -10 45 -13 194 -13 l193 0 12 56 c6 31 8 60 5 65 -9 15 -374 11 -379 -3z"/> <path d="M1980 1510 c-59 -14 -70 -38 -70 -151 0 -138 26 -159 195 -159 148 0 165 11 165 118 l0 72 -94 0 c-86 0 -95 -2 -101 -20 -10 -32 3 -40 66 -40 60 0 60 0 57 -27 l-3 -28 -95 -3 c-112 -3 -120 2 -120 88 0 87 4 89 150 92 l125 3 0 30 0 30 -120 2 c-66 1 -136 -2 -155 -7z"/> <path d="M2533 1505 c-2 -6 -2 -75 -1 -154 l3 -142 160 -2 160 -2 3 33 3 32 -125 0 -126 0 0 34 0 34 113 -2 112 -1 3 28 3 27 -115 0 -116 0 0 30 0 30 120 0 120 0 0 25 c0 14 -1 28 -2 33 -5 12 -310 9 -315 -3z"/> <path d="M3245 1512 c-18 -3 -175 -273 -175 -302 0 -16 67 -12 84 5 8 8 18 24 21 35 6 18 15 20 100 20 l93 0 21 -35 c17 -30 26 -35 56 -35 46 0 45 8 -14 116 -27 49 -62 114 -77 144 -30 57 -43 63 -109 52z m60 -112 c34 -67 33 -70 -30 -70 -64 0 -65 4 -28 71 32 59 27 60 58 -1z"/> <path d="M3714 1511 c-13 -14 -3 -302 11 -307 40 -16 65 4 65 51 l0 45 64 0 c63 0 63 0 92 -41 29 -42 57 -59 100 -59 33 0 30 16 -12 62 l-36 40 32 27 c42 35 42 132 0 162 -23 17 -301 34 -316 20z m270 -83 c24 -38 -3 -53 -103 -56 l-91 -3 0 41 0 41 91 -3 c75 -2 94 -6 103 -20z"/> </g> </svg>