<?xml version="1.0" encoding="UTF-8"?>
<svg id="Layer_1" data-name="Layer 1" xmlns="http://www.w3.org/2000/svg" viewBox="0 0 64 64">
  <path d="m0-1.5c21.33,0,42.67,0,64,0,0,21.83,0,43.67,0,65.5-21.33,0-42.67,0-64,0,0-21.83,0-43.67,0-65.5Zm53.25,10.47s-.08.02-.12.03c-.29.15-.59.31-.88.46-.37,0-.69.07-.76.5-.08.08-.16.17-.24.25-.09.04-.18.08-.26.12-.08.09-.16.17-.24.26-.09.04-.18.08-.26.12-.08.09-.16.17-.24.26-.09.04-.18.08-.26.12-.08.09-.16.17-.23.26-.09.08-.19.16-.28.23-.45.37-.9.75-1.34,1.12-.09.12-.18.23-.27.35-.15.06-.31.1-.44.19-.43.31-.85.65-1.28.97-1.26.96-2.53,1.91-3.8,2.87-.07.08-.15.15-.22.23-.33.25-.66.51-1,.76-1.04.78-2.1,1.53-3.13,2.33-1.93,1.49-3.84,3.01-5.77,4.49-.12.09-.47.06-.6-.05-.79-.61-1.53-1.28-2.31-1.89-2.63-2.04-5.26-4.08-7.91-6.1-1.78-1.36-3.59-2.69-5.39-4.04-.26-.24-.51-.5-.78-.72-.78-.62-1.58-1.21-2.36-1.83-.31-.25-.58-.54-.86-.81-.09-.03-.17-.05-.26-.08-.14-.04-.28-.08-.42-.13-1.2-.52-2.42-.79-3.74-.53-1.31.25-2.42.82-3.34,1.78-.29-.06-.45.02-.38.35l-.98,1.62c0,.08,0,.17,0,.25-.04.21-.09.42-.13.63-.09.08-.18.17-.27.25.05.28.13.55.14.83.02,1.97.02,3.94.02,5.91,0,.19-.02.37-.02.56,0,9.58,0,19.16,0,28.75,0,.25.01.5.02.75.24.63.49,1.25.73,1.88.04.09.08.17.12.26.61.88,1.6,1.1,2.51,1.46h9.99v-.81c0-5.98,0-11.97,0-17.95,0-1.47.01-2.95.02-4.42.11.05.23.09.32.16,1.46,1.16,2.9,2.33,4.37,3.47,1.21.93,2.45,1.82,3.68,2.73.08.05.15.09.23.14,1.1.88,2.2,1.77,3.31,2.64,1.33,1.04,2.67,2.05,4.06,3.12,1.58-1.27,3.14-2.55,4.73-3.8,1.23-.97,2.5-1.88,3.74-2.84,1.55-1.2,3.09-2.41,4.64-3.62.05-.03.1-.06.14-.1.88-.64,1.75-1.28,2.63-1.92.04.01.08.03.12.04,0,.04,0,.08.03.11,0,.23-.02.46-.02.68,0,6.22,0,12.43,0,18.65,0,1.21.01,2.41.02,3.62.08.04.16.12.24.12,3.2,0,6.41-.01,9.61-.02.25-.03.5-.06.74-.08.13-.09.26-.17.38-.26.81-.48,1.62-.95,1.78-2,.08-.08.15-.17.23-.25l.25-1.49c.04-.23.11-.46.11-.7,0-9.38,0-18.76,0-28.14,0-.21-.01-.41-.02-.62,0-1.99.01-3.99.01-5.98,0-.13-.08-.26-.12-.39.08-.16.15-.33.23-.49-.12-.13-.23-.26-.35-.39-.09-.33-.19-.66-.28-.99-.03-.04-.06-.09-.1-.13-.36-.87-.87-1.61-1.75-2.02-.09-.11-.18-.23-.27-.34-.17-.09-.35-.19-.52-.28-.02-.03-.03-.07-.05-.1-.01.03-.02.06-.03.09-.05-.04-.11-.08-.16-.12-.06-.06-.13-.12-.19-.18-.35-.13-.69-.26-1.04-.39-.08-.08-.16-.17-.25-.25-.79.08-1.58.17-2.38.25-.08,0-.16,0-.24,0-.09-.01-.17-.03-.26-.04-.13.09-.25.17-.38.26h0Z" style="fill: #fff;"/>
  <path d="m45.1,32.81c-1.55,1.21-3.08,2.42-4.64,3.62-1.24.96-2.51,1.87-3.74,2.84-1.59,1.25-3.16,2.53-4.73,3.8-1.39-1.07-2.73-2.08-4.06-3.12-1.11-.87-2.21-1.76-3.31-2.64-.08-.05-.15-.09-.23-.14-1.23-.91-2.47-1.8-3.68-2.73-1.47-1.14-2.91-2.32-4.37-3.47-.09-.07-.22-.11-.32-.16-.01-.04-.02-.08-.03-.12,0-.64,0-1.29,0-1.93,0-5.31,0-10.63.01-15.94,1.8,1.34,3.61,2.67,5.39,4.04,2.65,2.02,5.28,4.05,7.91,6.1.79.61,1.53,1.28,2.31,1.89.14.11.48.14.6.05,1.94-1.48,3.84-3,5.77-4.49,1.03-.79,2.09-1.55,3.13-2.33.34-.25.67-.51,1-.76l.22-.23c1.27-.96,2.53-1.91,3.8-2.87.43-.32.85-.66,1.28-.97.13-.09.29-.13.44-.19.05.01.09.03.14.04,0,1,0,2,.01,2.99,0,4.78.01,9.56.02,14.34,0,.05.02.1.03.16-.01.04-.03.07-.05.1-.04.03-.08.07-.13.1-.88.64-1.75,1.28-2.63,1.92-.05.03-.1.06-.14.1Z" style="fill: #d74f3f;"/>
  <path d="m48,30.69s.03-.07.05-.1c.07-.05.14-.1.21-.15.96-.75,1.91-1.51,2.88-2.25,2.01-1.53,4.03-3.05,6.05-4.59,1.36-1.04,2.72-2.08,4.07-3.13,0,9.81,0,19.63,0,29.44-.08.5-.17.99-.25,1.49-.08.08-.15.17-.23.25-.16,1.05-.97,1.52-1.78,2-.13.09-.26.17-.38.26-.25.03-.5.06-.74.08-.22-.03-.44-.09-.66-.09-3.03,0-6.06,0-9.09,0,0-7.41,0-14.82,0-22.23,0-.24-.07-.48-.1-.72-.02-.04-.02-.07-.03-.11,0-.04,0-.09,0-.13Z" style="fill: #58a45c;"/>
  <path d="m3.38,52.27c-.24-.63-.49-1.25-.73-1.88.03-.24.1-.48.1-.72,0-9.74,0-19.48,0-29.23,4.34,3.36,8.67,6.72,13.01,10.08,0,.29-.01.58-.01.87,0,7.18,0,14.37,0,21.55q0,.94-.97.94c-2.7,0-5.41,0-8.11,0-.22,0-.44.06-.66.09-.91-.36-1.9-.58-2.51-1.46-.04-.09-.08-.17-.12-.26Z" style="fill: #5a80c0;"/>
  <path d="m15.76,30.53c-4.34-3.36-8.67-6.72-13.01-10.08-.04-.04-.07-.07-.11-.11,0-1.97,0-3.94-.02-5.91,0-.28-.09-.55-.14-.83.09-.08.18-.17.27-.25.04-.21.09-.42.13-.63.06-.04.12-.08.18-.13-.06-.04-.12-.08-.18-.13.33-.54.65-1.08.98-1.62.13-.12.25-.23.38-.35.92-.96,2.03-1.53,3.34-1.78,1.32-.25,2.54.01,3.74.53.13.06.28.09.42.13.09.03.17.05.26.08.29.27.55.57.86.81.78.62,1.58,1.21,2.36,1.83.28.22.52.48.78.72,0,5.31,0,10.63-.01,15.94,0,.64,0,1.29,0,1.93-.08-.06-.15-.11-.23-.17Z" style="fill: #b5342a;"/>
  <path d="m61.25,20.47c-1.36,1.04-2.71,2.09-4.07,3.13-2.01,1.53-4.03,3.05-6.05,4.59-.97.74-1.92,1.5-2.88,2.25-.08,0-.15,0-.23,0,0-4.78-.01-9.56-.02-14.34,0-1,0-2-.01-2.99.04-.13.08-.26.13-.39.45-.37.9-.75,1.34-1.12.09-.08.19-.16.28-.23.08-.09.16-.17.23-.26.09-.04.18-.08.26-.12.08-.09.16-.17.24-.26.09-.04.18-.08.26-.12.08-.09.16-.17.24-.26.09-.04.18-.08.26-.12.08-.08.16-.17.24-.25.25-.17.51-.34.76-.5.29-.15.59-.31.88-.46.04-.01.08-.02.12-.03,0,0,0,0,0,0,.13-.09.25-.17.38-.26.09.01.17.03.26.04.08,0,.16,0,.24,0,.79-.08,1.58-.17,2.38-.25.08.08.16.17.25.25.35.13.69.26,1.04.39.06.06.13.12.19.18.05.04.11.08.16.12,0,0,.04.01.04.01h.04c.17.09.35.19.52.28.09.11.18.23.27.34.88.41,1.39,1.15,1.75,2.02.03.04.06.09.1.13.09.33.19.66.28.99.12.13.23.26.35.39-.08.16-.15.33-.23.49,0,2.11,0,4.23-.01,6.34,0,0,0,.05,0,.05Z" style="fill: #f1bb41;"/>
  <path d="m15.76,30.53c.08.06.15.11.23.17,0,.04.02.08.03.12,0,1.47-.02,2.95-.02,4.42,0,5.98,0,11.97,0,17.95v.81c-3.35,0-6.67,0-9.99,0,.22-.03.44-.09.66-.09,2.7,0,5.41,0,8.11,0q.97,0,.97-.94c0-7.18,0-14.37,0-21.55,0-.29,0-.58.01-.87Z" style="fill: #5b7fc0;"/>
  <path d="m2.65,20.34s.07.07.11.11c0,9.74,0,19.48,0,29.23,0,.24-.06.48-.1.72,0-.25-.02-.5-.02-.75,0-9.58,0-19.16,0-28.75,0-.19.01-.37.02-.56Z" style="fill: #6679bb;"/>
  <path d="m61.26,49.91c0-9.81,0-19.63,0-29.44,0,0,0-.05,0-.05.04.02.08.03.12.03,0,.21.02.41.02.62,0,9.38,0,18.76,0,28.14,0,.23-.07.46-.11.7Z" style="fill: #6c9358;"/>
  <path d="m48.02,30.94c.03.24.1.48.1.72,0,7.41,0,14.82,0,22.23-.04,0-.07,0-.11,0,0-1.21-.02-2.41-.02-3.62,0-6.22,0-12.43,0-18.65,0-.23.01-.46.02-.68Z" style="fill: #5e9b58;"/>
  <path d="m48.02,53.89s.07,0,.11,0c3.03,0,6.06,0,9.09,0,.22,0,.44.06.66.09-3.2,0-6.41.02-9.61.02-.08,0-.16-.08-.24-.12Z" style="fill: #669859;"/>
  <path d="m61.36,20.46s-.08-.01-.12-.03c0-2.11,0-4.23.01-6.34.04.13.12.26.12.39,0,1.99,0,3.99-.01,5.98Z" style="fill: #e8a845;"/>
  <path d="m52.25,9.47c-.25.17-.51.34-.76.5.08-.44.39-.51.76-.5Z" style="fill: #f0b847;"/>
  <path d="m4.25,10.5c-.13.12-.25.23-.38.35-.07-.33.08-.41.38-.35Z" style="fill: #b6382c;"/>
  <path d="m58.62,53.91c.13-.09.26-.17.38-.26-.13.09-.26.17-.38.26Z" style="fill: #5ea15c;"/>
  <path d="m2.76,13.35c-.09.08-.18.17-.27.25.09-.08.18-.17.27-.25Z" style="fill: #b6382c;"/>
  <path d="m53.62,8.71c-.13.09-.25.17-.38.26.13-.09.25-.17.38-.26Z" style="fill: #f0b847;"/>
  <path d="m61.48,13.59c-.12-.13-.23-.26-.35-.39.12.13.23.26.35.39Z" style="fill: #f0b847;"/>
  <path d="m59,10.06c-.09-.11-.18-.23-.27-.34.09.11.18.23.27.34Z" style="fill: #fdf8f5;"/>
  <path d="m48.12,12.71c-.04.13-.08.26-.13.39-.05-.01-.09-.03-.14-.04.09-.12.18-.23.27-.35Z" style="fill: #ecac3f;"/>
  <path d="m60.78,51.65c.08-.08.15-.17.23-.25-.08.08-.15.17-.23.25Z" style="fill: #f7f6f3;"/>
  <path d="m56.75,8.75c-.08-.08-.16-.17-.25-.25.08.08.16.17.25.25Z" style="fill: #f0b943;"/>
  <path d="m2.9,12.47c.06.04.12.08.18.13-.06.04-.12.08-.18.13,0-.08,0-.17,0-.25Z" style="fill: #b6382c;"/>
  <path d="m42.34,17.09l-.22.23.22-.23Z" style="fill: #fefaf8;"/>
  <path d="m12,9.46c-.09-.03-.17-.05-.26-.08.09.03.17.05.26.08Z" style="fill: #b6372b;"/>
  <path d="m49.75,11.35c-.09.08-.19.16-.28.23.09-.08.19-.16.28-.23Z" style="fill: #f0b847;"/>
  <path d="m50.25,10.97c-.09.04-.18.08-.26.12.09-.04.18-.08.26-.12Z" style="fill: #f0b847;"/>
  <path d="m50.75,10.6c-.09.04-.18.08-.26.12.09-.04.18-.08.26-.12Z" style="fill: #f0b847;"/>
  <path d="m51.25,10.22c-.09.04-.18.08-.26.12.09-.04.18-.08.26-.12Z" style="fill: #f0b847;"/>
  <path d="m24.39,37.17c.08.05.15.09.23.14-.08-.05-.15-.09-.23-.14Z" style="fill: #d75040;"/>
  <path d="m3.38,52.27c.04.09.08.17.12.26-.04-.09-.08-.17-.12-.26Z" style="fill: #6380bf;"/>
  <path d="m54.12,8.75c-.08,0-.16,0-.24,0,.08,0,.16,0,.24,0Z" style="fill: #f0b847;"/>
  <path d="m60.85,12.22s-.06-.09-.1-.13c.03.04.06.09.1.13Z" style="fill: #f0b847;"/>
  <path d="m58.21,9.44h-.04s-.04,0-.04,0c.01-.03.02-.06.03-.09.02.03.03.07.05.1Z" style="fill: #fdf8f5;"/>
  <path d="m57.97,9.32c-.06-.06-.12-.12-.19-.18.06.06.13.12.19.18Z" style="fill: #fdf8f5;"/>
  <path d="m45.1,32.81s.1-.06.14-.1c-.05.03-.1.06-.14.1Z" style="fill: #fefbf9;"/>
  <path d="m53.25,8.97s-.08.02-.12.03c.04-.01.08-.02.12-.03Z" style="fill: #f0b847;"/>
  <path d="m48,30.69s0,.09,0,.13c-.04,0-.08-.02-.12-.04.04-.03.08-.07.13-.1Z" style="fill: #5e9b58;"/>
  <path d="m48.02,30.43c.08,0,.15,0,.23,0-.07.05-.14.1-.21.15,0-.05-.02-.1-.03-.16Z" style="fill: #ecac3f;"/>
</svg>