<?xml version="1.0" standalone="no"?>
<!DOCTYPE svg PUBLIC "-//W3C//DTD SVG 20010904//EN"
 "http://www.w3.org/TR/2001/REC-SVG-20010904/DTD/svg10.dtd">
<svg version="1.0" xmlns="http://www.w3.org/2000/svg"
 width="600.000000pt" height="600.000000pt" viewBox="0 0 600.000000 600.000000"
 preserveAspectRatio="xMidYMid meet">
<g transform="translate(0.000000,600.000000) scale(0.100000,-0.100000)"
fill="#000000" stroke="none">
<path d="M1564 5128 c-42 -20 -44 -40 -44 -484 l0 -426 29 -29 29 -29 1422 0
1422 0 29 29 29 29 0 426 c0 290 -4 433 -11 449 -6 14 -22 30 -36 36 -33 15
-2838 14 -2869 -1z m2726 -478 l0 -300 -1290 0 -1290 0 0 300 0 300 1290 0
1290 0 0 -300z"/>
<path d="M982 4935 c-58 -25 -71 -101 -26 -154 l26 -31 -387 0 c-424 0 -430
-1 -455 -60 -18 -44 -3 -89 40 -118 l35 -24 371 8 c204 4 377 4 383 0 8 -5 4
-17 -14 -38 -34 -40 -40 -70 -21 -107 20 -38 44 -51 92 -51 34 0 47 10 146
108 181 177 181 182 21 344 -127 127 -157 145 -211 123z"/>
<path d="M4740 4738 c-14 -7 -33 -30 -43 -50 -16 -33 -17 -40 -3 -73 23 -55
58 -65 234 -65 115 0 166 -4 226 -20 307 -78 516 -349 516 -670 0 -321 -209
-592 -518 -671 -57 -14 -111 -19 -221 -20 -175 0 -209 -9 -234 -61 -18 -37
-18 -39 0 -75 29 -61 45 -65 248 -60 158 4 191 8 269 31 207 62 384 186 494
348 51 74 109 204 134 298 31 120 31 300 0 420 -86 327 -312 555 -643 651 -94
27 -417 39 -459 17z"/>
<path d="M1549 3531 l-29 -29 0 -426 c0 -290 4 -433 11 -449 6 -14 21 -29 34
-35 14 -6 217 -11 547 -13 586 -3 564 -6 588 65 14 44 -7 97 -46 115 -17 8
-162 11 -484 11 l-460 0 0 300 0 300 1290 0 1290 0 0 -300 0 -300 -459 0 -459
0 -30 -25 c-17 -14 -33 -39 -37 -55 -8 -35 16 -84 48 -101 29 -16 1047 -13
1082 3 13 6 28 21 34 35 7 16 11 159 11 449 l0 426 -29 29 -29 29 -1422 0
-1422 0 -29 -29z"/>
<path d="M935 3160 c-111 -12 -199 -37 -290 -80 -318 -152 -509 -453 -508
-805 0 -172 42 -324 130 -469 72 -118 223 -256 349 -319 147 -74 261 -97 480
-97 148 0 153 1 182 25 35 29 44 62 26 103 -22 54 -42 60 -234 65 -153 3 -185
7 -252 29 -117 39 -204 92 -288 177 -135 137 -190 263 -198 453 -8 220 48 369
197 519 95 95 157 134 276 175 72 24 99 28 266 33 204 7 211 9 236 69 12 30
12 38 -4 70 -13 26 -28 41 -53 49 -39 13 -206 15 -315 3z"/>
<path d="M2949 2755 c-36 -19 -54 -67 -43 -108 10 -33 63 -77 94 -77 9 0 32
10 51 23 106 71 11 223 -102 162z"/>
<path d="M1568 1964 c-15 -8 -32 -23 -38 -34 -14 -26 -14 -864 0 -891 28 -51
-40 -49 1470 -49 1531 0 1448 -3 1470 56 13 33 13 845 0 878 -22 59 62 56
-1472 56 -1219 -1 -1407 -3 -1430 -16z m2722 -479 c0 -162 -3 -295 -7 -295 -5
0 -584 -1 -1288 -1 l-1280 -1 -3 296 -2 296 1290 0 1290 0 0 -295z"/>
<path d="M5530 1767 c-53 -27 -65 -98 -25 -145 14 -17 25 -33 25 -36 0 -3
-176 -6 -391 -6 l-391 0 -29 -29 c-47 -47 -38 -119 18 -149 15 -9 133 -12 407
-12 212 0 386 -3 386 -6 0 -3 -11 -19 -25 -36 -67 -79 17 -193 108 -147 32 16
226 209 243 242 27 51 11 83 -105 200 -134 138 -163 154 -221 124z"/>
</g>
</svg>
