<?xml version="1.0" standalone="no"?>
<!DOCTYPE svg PUBLIC "-//W3C//DTD SVG 20010904//EN"
 "http://www.w3.org/TR/2001/REC-SVG-20010904/DTD/svg10.dtd">
<svg version="1.0" xmlns="http://www.w3.org/2000/svg"
 width="600.000000pt" height="600.000000pt" viewBox="0 0 600.000000 600.000000"
 preserveAspectRatio="xMidYMid meet">
<g transform="translate(0.000000,600.000000) scale(0.100000,-0.100000)"
fill="#000000" stroke="none">
<path d="M2245 5901 c-51 -23 -101 -79 -114 -128 -7 -24 -11 -221 -11 -538
l-1 -500 -107 -35 c-128 -41 -305 -127 -428 -208 -386 -254 -661 -642 -774
-1091 -42 -168 -51 -253 -51 -473 0 -143 -3 -199 -12 -205 -7 -5 -30 -15 -52
-21 -47 -13 -122 -64 -157 -107 -14 -16 -38 -55 -54 -85 l-29 -55 0 -415 0
-415 26 -55 c36 -77 106 -145 187 -183 62 -29 76 -31 204 -35 l137 -4 15 -39
c23 -56 80 -115 142 -145 47 -23 63 -26 126 -22 88 5 137 27 195 85 75 78 73
52 73 817 l0 681 -24 50 c-29 62 -101 130 -155 146 l-41 12 0 51 c0 133 60
378 128 526 113 244 315 452 559 574 39 20 76 36 82 36 8 0 11 -73 11 -233 0
-269 7 -304 70 -361 50 -45 92 -56 218 -56 l102 0 0 -396 0 -396 29 -29 c22
-21 39 -29 65 -29 40 0 -7 -39 596 505 134 121 275 248 314 283 l71 63 85 -3
84 -3 29 -75 c38 -98 63 -222 72 -351 l7 -104 -54 -19 c-36 -12 -68 -34 -100
-66 -80 -83 -78 -60 -78 -810 0 -757 -3 -728 84 -815 66 -66 130 -90 222 -82
l64 5 -6 -42 c-34 -244 -80 -365 -178 -460 -109 -105 -282 -145 -626 -146
l-125 0 -24 52 c-29 64 -106 142 -169 171 -44 21 -62 22 -277 22 -221 0 -232
-1 -278 -23 -66 -33 -134 -102 -165 -170 -22 -47 -27 -71 -27 -142 0 -73 4
-93 27 -141 35 -70 97 -132 168 -167 55 -27 56 -27 275 -27 l220 0 59 29 c74
37 131 93 163 162 l24 54 207 0 c365 0 532 48 684 195 158 154 225 371 241
775 l2 65 101 -4 c212 -7 339 62 416 224 l33 70 0 395 0 395 -31 65 c-52 110
-124 174 -227 205 l-42 12 -6 194 c-7 232 -13 290 -45 433 -13 60 -24 112 -24
117 0 5 190 10 423 11 406 3 424 4 462 24 22 11 54 40 70 63 l30 43 0 1093 0
1093 -30 43 c-16 23 -50 53 -74 66 l-44 23 -1461 0 c-1392 0 -1463 -1 -1501
-19z m2926 -183 c0 -11 0 -2031 -1 -2050 0 -5 -369 -8 -821 -8 -589 0 -826 -3
-841 -11 -12 -6 -134 -113 -272 -238 -137 -124 -313 -283 -390 -353 -77 -70
-143 -125 -147 -122 -4 2 -5 146 -2 318 6 335 4 363 -41 389 -13 7 -83 14
-181 17 l-160 5 -3 1033 -2 1032 1430 0 c1137 0 1430 -3 1431 -12z m-3051
-1286 l0 -109 -72 -28 c-507 -194 -837 -659 -890 -1256 l-12 -135 -33 -25
c-34 -25 -86 -97 -98 -136 -5 -18 -14 -23 -42 -23 l-36 0 6 213 c6 237 20 335
72 504 148 475 497 859 955 1050 80 34 125 50 143 52 4 1 7 -48 7 -107z m2071
-1027 c30 -97 49 -231 55 -375 2 -74 6 -168 8 -209 5 -92 2 -101 -38 -101 -30
0 -34 4 -45 41 -8 26 -32 60 -70 98 l-58 58 -6 134 c-4 105 -13 160 -37 254
-18 66 -34 130 -37 143 -5 23 -5 23 102 20 l107 -3 19 -60z m-2841 -681 l25
-24 3 -643 c3 -674 2 -682 -42 -712 -24 -18 -79 -20 -108 -4 -47 25 -48 37
-48 704 0 692 -2 672 63 701 40 17 75 10 107 -22z m2633 -5 l27 -29 0 -650 0
-650 -27 -29 c-40 -43 -99 -46 -138 -6 l-25 24 0 656 c0 450 3 663 11 676 14
27 67 50 99 43 14 -2 37 -18 53 -35z m-2983 -679 l0 -500 -107 0 c-127 0 -174
17 -219 76 l-29 37 0 387 0 387 29 37 c45 59 92 76 219 76 l107 0 0 -500z
m3448 481 c47 -24 77 -56 97 -103 12 -31 15 -93 15 -381 0 -336 0 -344 -22
-387 -13 -24 -40 -58 -61 -74 -38 -30 -42 -31 -163 -34 l-124 -4 0 501 0 501
110 0 c89 0 118 -4 148 -19z m-1642 -1977 c46 -22 78 -76 78 -133 0 -58 -26
-103 -74 -130 -34 -19 -54 -21 -209 -21 -192 0 -223 7 -261 60 -50 70 -32 170
39 217 32 22 43 23 213 23 145 0 187 -3 214 -16z"/>
<path d="M2764 5310 c-56 -23 -73 -112 -29 -155 l24 -25 970 0 970 0 26 23
c15 13 28 37 31 58 5 31 1 42 -24 70 l-30 34 -959 2 c-527 1 -968 -2 -979 -7z"/>
<path d="M2737 4762 c-35 -37 -37 -90 -3 -129 l24 -28 959 -3 c708 -2 965 1
986 9 61 25 73 117 20 159 -25 20 -34 20 -992 20 l-967 0 -27 -28z"/>
<path d="M2758 4254 c-54 -29 -66 -107 -23 -149 l24 -25 335 0 334 0 26 31
c45 53 27 126 -36 148 -20 7 -142 11 -332 11 -246 -1 -306 -3 -328 -16z"/>
<path d="M1942 2125 c-64 -28 -75 -114 -20 -160 39 -33 87 -33 127 1 25 21 31
33 31 66 0 52 -14 77 -55 94 -41 17 -42 17 -83 -1z"/>
<path d="M2363 2133 c-32 -6 -73 -59 -73 -95 0 -21 10 -40 35 -65 32 -32 40
-35 76 -30 48 6 68 21 86 65 19 46 -3 97 -51 117 -20 8 -39 14 -43 14 -4 -1
-18 -4 -30 -6z"/>
<path d="M2754 2124 c-91 -45 -55 -184 47 -184 28 0 77 27 89 49 27 52 1 122
-52 140 -40 14 -47 14 -84 -5z"/>
<path d="M3163 2125 c-74 -32 -71 -135 4 -174 30 -15 60 -14 93 6 68 40 65
134 -5 168 -40 18 -51 18 -92 0z"/>
</g>
</svg>
