<?xml version="1.0" encoding="UTF-8"?>
<svg id="Layer_1" data-name="Layer 1" xmlns="http://www.w3.org/2000/svg" viewBox="0 0 64 64">
  <path d="m0,0h64v64H0V0Zm52.01,39.84c.02-.21.02-.35.05-.49.38-2.09.68-4.19.56-6.33-.09-1.6-.4-3.15-1.48-4.41-.28-.33-.33-.58-.2-.98,1.6-4.86,2.35-9.86,2.34-14.97,0-.87-.33-1.19-1.18-1.28-1.53-.16-3.07-.27-4.58-.54-6.85-1.21-13.08-3.88-18.66-8.05-1.02-.76-1.15-.76-2.18,0-6.91,5.12-14.66,7.99-23.25,8.58-.81.06-1.17.42-1.17,1.22-.03,3.47.29,6.91,1.05,10.29,3.05,13.56,10.85,23.48,23.08,29.97.33.18.44.37.43.72-.02,1.12,0,2.25,0,3.37,0,.96-.02,1.92.01,2.87.04,1.12.79,1.89,1.83,1.9,1.85.02,3.71,0,5.56,0,.63,0,1.18-.26,1.47-.79.26-.48.57-.52,1.01-.43.31.06.61.11.92.17,1.28.26,2.56.73,3.84.76,4.6.13,9.2.17,13.8.13,2.24-.02,3.57-1.78,3.27-4-.02-.17.14-.45.3-.56.86-.61,1.48-1.39,1.57-2.44.06-.74-.08-1.5-.14-2.4.83-.62,1.4-1.6,1.49-2.83.09-1.23-.33-2.28-1.18-3.15.1-.13.16-.21.22-.29.92-1.22,1.11-2.54.46-3.93-.64-1.36-1.77-2.06-3.27-2.12-1-.04-2-.01-3-.02-.97,0-1.95,0-2.96,0Z" style="fill: #fff;"/>
  <path d="m52.01,39.84c1.01,0,1.99,0,2.96,0,1,0,2-.02,3,.02,1.5.06,2.63.76,3.27,2.12.65,1.39.46,2.71-.46,3.93-.06.08-.12.17-.22.29.84.88,1.27,1.93,1.18,3.15-.09,1.23-.66,2.21-1.49,2.83.06.89.2,1.66.14,2.4-.09,1.05-.71,1.84-1.57,2.44-.16.11-.33.39-.3.56.3,2.23-1.02,3.98-3.27,4-4.6.04-9.2,0-13.8-.13-1.29-.04-2.56-.5-3.84-.76-.31-.06-.61-.11-.92-.17-.44-.09-.75-.04-1.01.43-.29.53-.84.79-1.47.79-1.85,0-3.71.01-5.56,0-1.04-.01-1.79-.79-1.83-1.9-.03-.96,0-1.92-.01-2.87,0-1.12-.01-2.25,0-3.37,0-.35-.1-.55-.43-.72C14.15,46.37,6.35,36.45,3.31,22.89c-.76-3.38-1.08-6.82-1.05-10.29,0-.8.36-1.16,1.17-1.22,8.59-.59,16.33-3.46,23.25-8.58,1.03-.76,1.16-.77,2.18,0,5.58,4.17,11.81,6.83,18.66,8.05,1.51.27,3.05.38,4.58.54.84.09,1.17.41,1.18,1.28,0,5.11-.73,10.11-2.34,14.97-.13.4-.08.65.2.98,1.08,1.26,1.39,2.81,1.48,4.41.12,2.13-.18,4.23-.56,6.33-.02.14-.03.28-.05.49Zm-3.02-12.74c1.49-4.44,2.17-9.01,2.27-13.73-8.68-.78-16.49-3.72-23.49-8.85-3.45,2.55-7.14,4.57-11.11,6.07-3.98,1.5-8.1,2.42-12.37,2.79.18,8.99,2.54,17.23,7.74,24.55,3.87,5.45,8.78,9.73,14.8,12.93,0-.36,0-.59,0-.81,0-1.67,0-3.33,0-5,0-1.87.63-2.5,2.53-2.5,1.29,0,2.58.02,3.87,0,1.07-.02,2.1.01,2.68,1.11,3.64-1.27,6.06-3.74,7.6-7.14,1.14-2.5,1.57-5.15,1.75-7.87.07-1.14.98-1.91,2.1-1.8.51.05,1.02.16,1.63.25Zm-1.6,1.8c-.33,1.82-.52,3.63-.98,5.37-1.45,5.43-4.54,9.47-10.03,11.37-.16.05-.32.36-.32.55-.02,3.92,0,7.83-.02,11.75,0,.37.12.52.48.56.49.05.99.12,1.48.23,2.19.5,4.37.99,6.65.94,2.58-.06,5.16-.01,7.75-.02.98,0,1.96-.02,2.93-.08.57-.04,1.04-.31,1.22-.91.18-.58-.19-.9-.53-1.29-.22-.25-.36-.75-.26-1.04.1-.29.53-.49.85-.67.19-.1.45-.07.67-.13.59-.16.99-.52,1.12-1.13.13-.61.02-1.17-.51-1.56-.41-.3-.63-.66-.5-1.18.12-.49.49-.68.95-.77.63-.13,1.08-.52,1.3-1.14.37-1.05-.08-2-1.15-2.39-.44-.16-.78-.42-.83-.91-.05-.53.25-.83.68-1.09.32-.19.69-.4.85-.71.22-.41.4-.93.35-1.39-.08-.87-.82-1.38-1.79-1.38-2.19,0-4.37,0-6.56,0-1.17,0-1.54-.45-1.33-1.59.08-.45.17-.9.24-1.35.34-2.14.72-4.26.43-6.45-.27-2.1-1.39-3.4-3.13-3.58Zm-13.41,30.84v-15.1h-5.08v15.1h5.08Z"/>
  <path d="m48.98,27.09c-.61-.1-1.12-.2-1.63-.25-1.12-.11-2.03.66-2.1,1.8-.18,2.71-.61,5.37-1.75,7.87-1.54,3.39-3.96,5.87-7.6,7.14-.58-1.09-1.61-1.13-2.68-1.11-1.29.03-2.58,0-3.87,0-1.89,0-2.53.62-2.53,2.5,0,1.67,0,3.33,0,5,0,.22,0,.45,0,.81-6.02-3.2-10.92-7.49-14.8-12.93-5.2-7.32-7.55-15.55-7.74-24.55,4.26-.37,8.39-1.29,12.37-2.79,3.97-1.5,7.67-3.51,11.11-6.07,7,5.13,14.82,8.07,23.49,8.85-.1,4.72-.79,9.29-2.27,13.73Zm-21.21,11.84c6.34.05,11.58-5.14,11.65-11.56.08-6.38-5.1-11.69-11.45-11.75-6.58-.06-11.8,5.03-11.86,11.57-.06,6.46,5.12,11.68,11.65,11.74Z" style="fill: #fff;"/>
  <path d="m47.39,28.89c1.74.17,2.86,1.47,3.13,3.58.28,2.19-.1,4.31-.43,6.45-.07.45-.15.9-.24,1.35-.21,1.14.16,1.59,1.33,1.59,2.19,0,4.37,0,6.56,0,.98,0,1.71.52,1.79,1.38.04.45-.13.97-.35,1.39-.16.3-.53.52-.85.71-.43.25-.74.56-.68,1.09.05.49.39.75.83.91,1.06.39,1.52,1.35,1.15,2.39-.22.62-.67,1-1.3,1.14-.46.1-.83.28-.95.77-.13.51.1.87.5,1.18.53.39.64.95.51,1.56-.13.61-.53.97-1.12,1.13-.22.06-.48.02-.67.13-.32.18-.75.38-.85.67-.1.29.04.79.26,1.04.34.39.71.71.53,1.29-.19.59-.66.87-1.22.91-.97.06-1.95.08-2.93.08-2.58.01-5.17-.03-7.75.02-2.28.05-4.46-.44-6.65-.94-.48-.11-.98-.17-1.48-.23-.36-.04-.48-.19-.48-.56.01-3.92,0-7.83.02-11.75,0-.19.17-.49.32-.55,5.5-1.89,8.58-5.94,10.03-11.37.47-1.74.66-3.54.98-5.37Z" style="fill: #fff;"/>
  <path d="m33.98,59.73h-5.08v-15.1h5.08v15.1Z" style="fill: #fff;"/>
  <path d="m27.77,38.93c-6.53-.05-11.72-5.27-11.65-11.74.06-6.54,5.28-11.64,11.86-11.57,6.35.06,11.52,5.37,11.45,11.75-.08,6.42-5.31,11.61-11.65,11.56Zm0-2.04c5.28.01,9.6-4.26,9.62-9.53.02-5.37-4.25-9.73-9.54-9.74-5.35-.01-9.71,4.28-9.73,9.58-.01,5.38,4.27,9.68,9.65,9.69Z"/>
  <path d="m27.77,36.89c-5.38-.01-9.67-4.31-9.65-9.69.01-5.29,4.38-9.59,9.73-9.58,5.3.01,9.56,4.37,9.54,9.74-.02,5.26-4.33,9.54-9.62,9.53Zm-1.76-7.57c-.94-.95-1.8-1.84-2.69-2.72-.47-.46-1.02-.46-1.44-.06-.42.4-.45.99,0,1.45,1.13,1.16,2.28,2.31,3.44,3.44.46.45.99.44,1.45-.02,2.3-2.29,4.6-4.58,6.88-6.89.46-.46.43-1.03.01-1.44-.41-.41-.98-.41-1.45.04-.94.91-1.86,1.85-2.79,2.77-1.12,1.12-2.23,2.24-3.41,3.42Z" style="fill: #fff;"/>
  <path d="m26.01,29.33c1.18-1.18,2.3-2.3,3.41-3.42.93-.93,1.85-1.86,2.79-2.77.47-.45,1.03-.45,1.45-.04.42.41.44.98-.01,1.44-2.28,2.31-4.58,4.6-6.88,6.89-.46.46-.98.47-1.45.02-1.16-1.13-2.31-2.28-3.44-3.44-.44-.46-.41-1.05,0-1.45.42-.4.97-.4,1.44.06.89.87,1.76,1.77,2.69,2.72Z"/>
</svg>