<?xml version="1.0" encoding="UTF-8"?>
<svg id="Layer_1" data-name="Layer 1" xmlns="http://www.w3.org/2000/svg" viewBox="0 0 64 64">
  <path d="m0,31.26v-1.48c.12-.77.22-1.54.38-2.3.37-1.71.61-3.46,1.19-5.09.76-2.12,1.64-4.19,2.91-6.12,1.72-2.61,3.57-5.08,5.89-7.18,1.01-.91,2.1-1.72,3.16-2.57,1.64-1.31,3.54-2.17,5.43-3.02,2.66-1.19,5.4-2.15,8.37-2.29.57-.03,1.12-.33,1.69-.34,1.92-.05,3.84-.04,5.76,0,.72.01,1.46.11,2.17.26,1.37.29,2.73.62,4.09.97,2.59.67,5.02,1.72,7.26,3.15,1.7,1.08,3.32,2.31,4.89,3.57,1,.8,1.86,1.77,2.75,2.69.49.51.97,1.05,1.38,1.62.84,1.17,1.65,2.35,2.43,3.56.29.45.43.99.69,1.47,1.25,2.29,2.07,4.74,2.63,7.28.04.19,0,.39,0,.65.05.12.15.31.19.52.1.42.21.85.24,1.28.14,1.62.27,3.24.36,4.86.03.56-.04,1.14-.11,1.7-.17,1.36,0,2.79-.82,4.02-.06.08.07.29.11.43,0,.08,0,.16,0,.25-.01.2-.02.4-.03.6-.03.04-.06.09-.09.13-.52,2.14-1.22,4.22-2.24,6.18-.14.29-.27.57-.41.86-.12.23-.22.46-.35.68-.54.93-1.08,1.86-1.62,2.79-.08.08-.16.17-.23.25-.04.05-.09.09-.13.14-.03.03-.07.07-.1.1-.05.13-.11.25-.16.38-.08.07-.16.15-.23.22-.74.78-1.47,1.57-2.21,2.34-.58.6-1.16,1.19-1.75,1.79-.03.03-.06.06-.09.09-.72.62-1.44,1.24-2.16,1.86-.07.11-.14.22-.21.33-.63.38-1.26.77-1.89,1.15-.11.07-.22.14-.33.21-.7.39-1.4.78-2.1,1.17-.37.18-.73.36-1.1.54-.87.36-1.74.72-2.61,1.08-.05.03-.09.06-.14.09h0c-.12.03-.25.08-.37.12-.67.2-1.34.45-2.03.59-1.87.38-3.75.7-5.63,1.05-.16.04-.33.07-.49.11h-4.82c-.22-.26-.44-.43-.79-.17-.11.08-.32.06-.48.04-1.22-.23-2.44-.45-3.65-.73-.51-.12-1.01-.56-1.49-.52-.79.08-1.41-.27-2.06-.51-.8-.29-1.56-.72-2.35-1.06-.67-.29-1.37-.54-2.01-.79-.59.18-1.19.37-1.79.52-.4.1-.83.12-1.23.25-.56.18-1.08.46-1.64.62-.85.25-1.72.41-2.57.65-1.06.3-2.1.66-3.16.96-.94.27-1.9.49-2.85.74h-1.36C1.07,63.63.37,62.93,0,61.9,0,61.45,0,60.99,0,60.54c.18-.26.37-.5.52-.77.15-.29.25-.62.39-.91.06-.13.28-.27.26-.35-.15-.56.23-.94.43-1.38.23-.48.5-.94.74-1.42.14-.27.25-.55.37-.82.08-.17.17-.33.25-.49.14-.31.26-.63.4-.94.06-.13.16-.24.22-.37.33-.72.57-1.5,1.01-2.15.44-.66.6-1.36.18-2.02-.12-.19-.2-.39-.31-.59-.09-.08-.17-.16-.26-.24-.52-.99-1.08-1.97-1.54-2.99-1.25-2.76-2.07-5.64-2.41-8.66-.05-.49-.16-.97-.24-1.46,0-.41,0-.82,0-1.24v-2.47Zm53.88-13.55c-.13-.09-.29-.16-.37-.28-1.1-1.51-2.34-2.88-3.69-4.18-1.57-1.49-3.3-2.74-5.18-3.77-1.89-1.04-3.94-1.7-6-2.3-1.75-.52-3.56-.72-5.39-.74-.08-.04-.17-.08-.25-.13-.98.04-1.96.13-2.94.1-.69-.03-1.44.4-1.97-.17-.31.17-.55.36-.81.43-1.48.42-3.03.65-4.43,1.24-2.05.86-4.07,1.85-5.95,3.02-2.35,1.47-4.31,3.45-5.95,5.68-1.9,2.57-3.52,5.31-4.16,8.52-.24,1.19-.58,2.37-.85,3.56-.07.31-.04.65-.06.97-.02.3-.07.6-.09.91-.01.22.02.45-.01.66-.04.29-.19.57-.19.86.01.88.05,1.75.12,2.63.04.54.14,1.08.24,1.61.11.63.2,1.26.38,1.87.3,1.03.65,2.05.99,3.07.04.09.08.17.12.26.06.29.07.62.2.87.86,1.61,1.67,3.26,2.66,4.8.71,1.1.93,2.14.47,3.34-.11.21-.21.42-.32.63-.18.34-.36.68-.54,1.02-.03.01-.07.02-.1.03.03.02.07.04.1.05-.5,1.15-.99,2.3-1.49,3.45-.03.04-.06.09-.1.13-.01.04-.02.08-.03.12-.08.12-.16.25-.24.37-.07.2-.14.39-.23.63.39-.04.73-.08,1.08-.12.13-.09.25-.17.38-.26.16-.02.32-.03.48-.06.62-.14,1.24-.28,1.86-.43.02.03.04.06.05.09.04-.04.08-.08.11-.12.4-.12.8-.23,1.19-.35.06,0,.11-.02.17-.02.16-.08.31-.18.48-.23.67-.2,1.33-.4,2-.59,1.1-.31,2.15-.41,3.26.18,1.98,1.05,4.02,2.01,6.21,2.57.55.14,1.11.26,1.64.37,1.57.33,3.2.44,4.81.54.91.06,1.84-.02,2.75-.12.94-.1,1.9-.19,2.8-.45,1.83-.53,3.64-1.13,5.43-1.76,2.48-.87,4.57-2.39,6.58-4.04,1.27-1.05,2.42-2.23,3.41-3.55.68-.9,1.31-1.83,1.91-2.78.39-.61.66-1.29,1.05-1.9.95-1.47,1.6-3.04,1.77-4.79.08-.03.17-.06.25-.1-.08-.05-.17-.1-.25-.15.16-.28.42-.54.45-.83.11-.91.55-1.73.44-2.73-.13-1.31.11-2.65.18-3.98-.04-.08-.09-.16-.13-.24-.02-.12-.06-.24-.06-.36,0-.76,0-1.51-.01-2.27,0-.44-.04-.88-.06-1.32-.03-.08-.06-.17-.09-.25-.19-.58-.36-1.16-.58-1.73-.54-1.4-1.11-2.79-1.66-4.18-.03-.13-.07-.26-.1-.39-.06.04-.13.08-.19.11-.52-.98-1.04-1.97-1.56-2.95.03-.02.06-.04.09-.06-.03,0-.06-.02-.09-.03Z" style="fill: #3aad49;"/>
  <path d="m49.14,59.06c.63-.38,1.26-.77,1.89-1.15.07-.11.14-.22.21-.33.72-.62,1.44-1.24,2.16-1.86.03-.03.06-.06.09-.09.58-.59,1.17-1.18,1.75-1.79.74-.78,1.47-1.56,2.21-2.34.08-.07.16-.15.23-.22.05-.13.11-.25.16-.38.03-.03.07-.07.1-.1.04-.05.09-.09.13-.14.08-.08.16-.17.23-.25.54-.93,1.09-1.86,1.62-2.79.13-.22.23-.45.35-.68.56-.18.69-.45.41-.86,1.01-1.96,1.72-4.04,2.24-6.18.03-.04.06-.09.09-.13.01-.2.02-.4.03-.6.05-.03.1-.06.14-.09l-.14-.15c-.04-.15-.17-.35-.11-.43.82-1.23.65-2.66.82-4.02.07-.56.15-1.14.11-1.7-.09-1.62-.22-3.24-.36-4.86-.04-.43-.15-.86-.24-1.28-.05-.2-.15-.39-.19-.52,0-.26.04-.47,0-.65-.56-2.54-1.38-4.99-2.63-7.28-.26-.47-.4-1.02-.69-1.47-.78-1.21-1.59-2.39-2.43-3.56-.41-.58-.89-1.11-1.38-1.62-.89-.92-1.76-1.89-2.75-2.69-1.57-1.26-3.19-2.49-4.89-3.57-2.24-1.43-4.68-2.49-7.26-3.15-1.36-.35-2.72-.68-4.09-.97-.71-.15-1.44-.25-2.17-.26-1.92-.03-3.84-.04-5.76,0-.56.01-1.12.31-1.69.34-2.97.14-5.71,1.1-8.37,2.29-1.89.84-3.79,1.71-5.43,3.02-1.06.85-2.16,1.66-3.16,2.57-2.32,2.1-4.17,4.56-5.89,7.18-1.27,1.93-2.15,4-2.91,6.12-.59,1.63-.83,3.39-1.19,5.09C.22,28.23.12,29.01,0,29.77V.62h64v63.38h-29.15s0-.07,0-.11c1.88-.35,3.76-.68,5.63-1.05.69-.14,1.35-.39,2.03-.59.12-.04.25-.08.37-.12,0,0,0,0,0,0,.05-.03.09-.06.14-.09.87-.36,1.74-.72,2.61-1.08.49.07.94.08,1.1-.54.7-.39,1.4-.78,2.1-1.17.11-.07.22-.14.33-.21Z" style="fill: #fff;"/>
  <path d="m4.45,48.31c.1.2.19.41.31.59.42.66.27,1.35-.18,2.02-.43.65-.67,1.43-1.01,2.15-.06.13-.16.24-.22.37-.14.31-.26.63-.4.94-.07.17-.17.33-.25.49-.13.27-.24.55-.37.82-.24.48-.51.94-.74,1.42-.21.43-.58.82-.43,1.38.02.09-.2.22-.26.35-.14.3-.23.62-.39.91C.37,60.04.18,60.28,0,60.54c0-8.53,0-17.05,0-25.58.08.49.19.97.24,1.46.34,3.02,1.16,5.9,2.41,8.66.46,1.02,1.02,1.99,1.54,2.99.09.08.17.16.26.24Z" style="fill: #fefefe;"/>
  <path d="m3.46,64c.95-.24,1.91-.47,2.85-.74,1.06-.3,2.1-.66,3.16-.96.85-.24,1.72-.4,2.57-.65.56-.16,1.08-.44,1.64-.62.4-.13.83-.14,1.23-.25.6-.16,1.2-.35,1.79-.52.65.25,1.34.5,2.01.79.79.34,1.54.77,2.35,1.06.66.24,1.27.59,2.06.51.47-.05.97.4,1.49.52,1.21.28,2.43.5,3.65.73.16.03.37.05.48-.04.35-.27.57-.1.79.17H3.46Z" style="fill: #fefefe;"/>
  <path d="m0,61.9c.37,1.03,1.07,1.73,2.1,2.1H0v-2.1Z" style="fill: #fafcf9;"/>
  <path d="m34.85,63.89s0,.07,0,.11h-.49c.16-.04.33-.07.49-.11Z" style="fill: #fffffe;"/>
  <path d="m58.32,31.38c-.08,1.33-.32,2.67-.18,3.98.1,1-.34,1.81-.44,2.73-.03.29-.29.55-.45.83,0,.08,0,.17,0,.25-.17,1.75-.82,3.32-1.77,4.79-.39.6-.66,1.29-1.05,1.9-.61.95-1.24,1.88-1.91,2.78-.99,1.32-2.14,2.5-3.41,3.55-2,1.65-4.1,3.17-6.58,4.04-1.8.63-3.6,1.24-5.43,1.76-.9.26-1.86.35-2.8.45-.91.09-1.84.17-2.75.12-1.61-.1-3.23-.21-4.81-.54-.53-.11-1.1-.23-1.64-.37-2.19-.56-4.23-1.51-6.21-2.57-1.11-.59-2.16-.49-3.26-.18-.67.19-1.34.38-2,.59-.17.05-.32.15-.48.23-.06,0-.11.02-.17.02-.4.12-.8.23-1.19.35-.06,0-.11.02-.17.02-.62.14-1.24.29-1.86.43-.16.03-.32.04-.48.06-.13.09-.25.17-.38.26-.35.04-.69.08-1.08.12.09-.24.16-.44.23-.63.08-.12.16-.25.24-.37,0-.04.01-.08.03-.12.03-.04.06-.09.1-.13.5-1.15.99-2.3,1.49-3.45,0-.03,0-.06,0-.09.18-.34.36-.68.54-1.02.11-.21.21-.42.32-.63.46-1.2.24-2.24-.47-3.34-.99-1.53-1.8-3.18-2.66-4.8-.14-.25-.14-.58-.2-.87-.04-.09-.08-.17-.12-.26-.33-1.02-.69-2.04-.99-3.07-.18-.61-.27-1.24-.38-1.87-.1-.54-.19-1.07-.24-1.61-.07-.87-.11-1.75-.12-2.63,0-.28.14-.57.19-.86.03-.22,0-.44.01-.66.02-.3.07-.6.09-.91.02-.32,0-.66.06-.97.27-1.19.61-2.36.85-3.56.64-3.21,2.27-5.94,4.16-8.52,1.64-2.23,3.61-4.2,5.95-5.68,1.88-1.18,3.91-2.16,5.95-3.02,1.4-.59,2.96-.82,4.43-1.24.27-.07.5-.26.81-.43.53.57,1.28.14,1.97.17.98.04,1.96-.06,2.94-.1.08.04.17.08.25.13,1.83.02,3.63.23,5.39.74,2.06.6,4.11,1.27,6,2.3,1.88,1.03,3.61,2.28,5.18,3.77,1.36,1.29,2.59,2.67,3.69,4.18.09.12.25.19.37.28,0,.03,0,.05,0,.08.52.98,1.04,1.97,1.56,2.95.1.09.19.18.29.28.56,1.39,1.12,2.78,1.66,4.18.22.57.39,1.15.58,1.73-.05.05-.11.09-.16.14.08.04.17.07.25.11.02.44.05.88.06,1.32.01.76,0,1.51.01,2.27,0,.12.04.24.06.36l.13.24Zm-21.36,15.08c.86.16,1.72.41,2.58.47,2.76.19,5.27-.34,7.07-2.7.16-.23.32-.47.48-.7.24-.65.61-1.28.71-1.95.17-1.21-.33-2.18-1.24-3.04-1.64-1.55-3.56-2.33-5.78-2.45-.12-.05-.25-.09-.37-.14-.73.08-1.42.2-1.86.91-.47.75-1.02,1.45-1.53,2.18-.74,1.05-.85.99-1.9.61-1.97-.72-3.73-1.86-5.38-3.11-2.05-1.54-3.67-3.52-4.95-5.75-.41-.72-.4-1.12.12-1.76.22-.27.44-.53.67-.79,1.16-1.3,1.61-2.71,1.04-4.48-.47-1.49-1.03-2.91-2-4.11-1.33-1.64-2.55-2.02-4.24-1.43-1.61.57-2.6,2.04-3.41,3.46-.89,1.55-.77,3.32-.55,5.05.17,1.38.84,2.58,1.46,3.79,1.86,3.62,4.43,6.66,7.52,9.31,2.24,1.92,4.67,3.54,7.29,4.86,1.34.68,2.76,1.19,4.14,1.78.02.03.04.06.05.09.03-.03.06-.06.1-.09Z" style="fill: #fff;"/>
  <path d="m60.7,46.08c.28.41.15.68-.41.86.14-.29.27-.57.41-.86Z" style="fill: #fffffe;"/>
  <path d="m46.71,60.43c-.15.61-.61.61-1.1.54.37-.18.73-.36,1.1-.54Z" style="fill: #fffffe;"/>
  <path d="m10.75,50.52c-.11.21-.21.42-.32.63.11-.21.21-.42.32-.63Z" style="fill: #f7faf6;"/>
  <path d="m55.73,21.01c-.1-.09-.19-.18-.29-.28.06-.04.13-.08.19-.11.03.13.07.26.1.39Z" style="fill: #3bad49;"/>
  <path d="m8.28,55.96c-.08.12-.16.25-.24.37.08-.12.16-.25.24-.37Z" style="fill: #f8fbf7;"/>
  <path d="m57.24,39.16c0-.08,0-.17,0-.25.08.05.17.1.25.15-.08.03-.17.06-.25.1Z" style="fill: #41ae4b;"/>
  <path d="m49.14,59.06c-.11.07-.22.14-.33.21.11-.07.22-.14.33-.21Z" style="fill: #41ae4b;"/>
  <path d="m58.06,27.18c-.08-.04-.17-.07-.25-.11.05-.05.11-.09.16-.14.03.08.06.17.09.25Z" style="fill: #fdfefc;"/>
  <path d="m42.87,62.13c-.12.04-.25.08-.37.12.12-.04.25-.08.37-.12Z" style="fill: #fffffe;"/>
  <path d="m8.89,56.85c.13-.09.25-.17.38-.26-.13.09-.25.17-.38.26Z" style="fill: #f8fbf7;"/>
  <path d="m51.25,57.57c-.07.11-.14.22-.21.33.07-.11.14-.22.21-.33Z" style="fill: #41ae4b;"/>
  <path d="m58.32,50.41c-.08.08-.16.17-.23.25.08-.08.16-.17.23-.25Z" style="fill: #41ae4b;"/>
  <path d="m33.25,6.43c-.08-.04-.17-.08-.25-.13.08.04.17.08.25.13Z" style="fill: #3dad4a;"/>
  <path d="m57.7,51.28c-.08.07-.16.15-.23.22.08-.07.16-.15.23-.22Z" style="fill: #41ae4b;"/>
  <path d="m4.45,48.31c-.09-.08-.17-.16-.26-.24.09.08.17.16.26.24Z" style="fill: #41ae4b;"/>
  <path d="m7.3,41.25c.04.09.08.17.12.26-.04-.09-.08-.17-.12-.26Z" style="fill: #3ead4a;"/>
  <path d="m63.05,38.92l.14.15s-.1.06-.14.09c0-.08,0-.16,0-.25Z" style="fill: #fffffe;"/>
  <path d="m58.32,31.38c-.04-.08-.09-.16-.13-.24.04.08.09.16.13.24Z" style="fill: #3cad49;"/>
  <path d="m12.97,55.73c.06,0,.11-.02.17-.02-.06,0-.11.02-.17.02Z" style="fill: #f9fcf8;"/>
  <path d="m11.61,56.1c.06,0,.11-.02.17-.02-.04.04-.08.08-.11.12-.02-.03-.04-.06-.05-.09Z" style="fill: #f8fbf7;"/>
  <path d="m53.51,55.63s-.06.06-.09.09c.03-.03.06-.06.09-.09Z" style="fill: #fffffe;"/>
  <path d="m8.4,55.71s-.06.09-.1.13c.03-.04.06-.09.1-.13Z" style="fill: #f8fbf7;"/>
  <path d="m9.89,52.17s0,.06,0,.09c-.03-.02-.07-.04-.1-.05.03-.01.07-.02.1-.03Z" style="fill: #f7faf6;"/>
  <path d="m57.96,50.8s-.07.07-.1.1c.03-.03.07-.07.1-.1Z" style="fill: #fffffe;"/>
  <path d="m63.02,39.77s-.06.09-.09.13c.03-.04.06-.09.09-.13Z" style="fill: #fffffe;"/>
  <path d="m43,62.05s-.09.06-.14.09c.05-.03.09-.06.14-.09Z" style="fill: #fffffe;"/>
  <path d="m53.88,17.79s0-.05,0-.08c.03,0,.06.02.09.03-.03.02-.06.04-.09.06Z" style="fill: #fafcf9;"/>
  <path d="m40.79,36.09c2.22.13,4.14.9,5.78,2.45.9.86,1.41,1.83,1.24,3.04-.09.67-.46,1.3-.71,1.95-.52,0-.35.45-.48.7-1.8,2.36-4.31,2.89-7.07,2.7-.87-.06-1.72-.31-2.58-.47-.05,0-.1,0-.15,0-1.38-.59-2.8-1.1-4.14-1.78-2.62-1.32-5.05-2.94-7.29-4.86-3.09-2.65-5.66-5.69-7.52-9.31-.62-1.21-1.28-2.41-1.46-3.79-.22-1.72-.34-3.5.55-5.05.82-1.42,1.8-2.89,3.41-3.46,1.69-.6,2.92-.21,4.24,1.43.97,1.2,1.53,2.63,2,4.11.56,1.77.11,3.17-1.04,4.48-.23.26-.45.52-.67.79-.51.64-.53,1.04-.12,1.76,1.28,2.24,2.9,4.21,4.95,5.75,1.65,1.24,3.41,2.39,5.38,3.11,1.05.38,1.15.44,1.9-.61.51-.72,1.06-1.43,1.53-2.18.45-.71,1.14-.83,1.86-.91.12.05.25.09.37.14Z" style="fill: #3aad49;"/>
  <path d="m46.61,44.23c.13-.26-.04-.71.48-.7-.16.23-.32.47-.48.7Z" style="fill: #fafcf9;"/>
  <path d="m40.79,36.09c-.12-.05-.25-.09-.37-.14.12.05.25.09.37.14Z" style="fill: #f9fcf8;"/>
  <path d="m36.82,46.46s.1,0,.15,0c-.03.03-.06.06-.1.09-.02-.03-.04-.06-.05-.09Z" style="fill: #3dad4a;"/>
</svg>